<svg width="42" height="42" viewBox="0 0 42 42" fill="none" xmlns="http://www.w3.org/2000/svg">
<path d="M15 11C12.38 11 10.25 13.13 10.25 15.75C10.25 18.32 12.26 20.4 14.88 20.49C14.96 20.48 15.04 20.48 15.1 20.49C15.12 20.49 15.13 20.49 15.15 20.49C15.16 20.49 15.16 20.49 15.17 20.49C17.73 20.4 19.74 18.32 19.75 15.75C19.75 13.13 17.62 11 15 11Z" fill="#292D32"/>
<path d="M20.08 23.15C17.29 21.29 12.74 21.29 9.92996 23.15C8.65996 24 7.95996 25.15 7.95996 26.38C7.95996 27.61 8.65996 28.75 9.91996 29.59C11.32 30.53 13.16 31 15 31C16.84 31 18.68 30.53 20.08 29.59C21.34 28.74 22.04 27.6 22.04 26.36C22.03 25.13 21.34 23.99 20.08 23.15Z" fill="#292D32"/>
<path d="M34.366 24.5C33.9811 25.1667 33.0189 25.1667 32.634 24.5L29.6029 19.25C29.218 18.5833 29.6991 17.75 30.4689 17.75L36.5311 17.75C37.3009 17.75 37.782 18.5833 37.3971 19.25L34.366 24.5Z" fill="#3563E9"/>
</svg>
