<svg width="240" height="69" viewBox="0 0 240 69" fill="none" xmlns="http://www.w3.org/2000/svg">
<path d="M15.0217 46.94C16.1683 49.5885 18.7913 51.4413 21.8485 51.4413C25.0155 51.4413 27.713 49.4503 28.789 46.6505C28.8741 46.4274 28.9501 46.1988 29.0151 45.9651C29.0771 45.742 29.1286 45.5134 29.171 45.2823C29.2463 44.8533 29.2939 44.4122 29.2939 43.961C29.2939 39.8289 25.9617 36.4803 21.8497 36.4803C17.7379 36.4803 14.4058 39.8289 14.4058 43.961C14.4058 44.5216 14.4719 45.067 14.5888 45.5932C14.6383 45.8218 14.6978 46.0461 14.7698 46.2652C14.8433 46.4966 14.9273 46.7195 15.0217 46.94Z" fill="#3563E9"/>
<path fill-rule="evenodd" clip-rule="evenodd" d="M72.7587 14.3226C68.946 13.5431 62.3412 12.2906 52.738 12.0826C37.8213 11.7858 26.0997 22.603 25.6165 23.0585L25.2709 23.3812C24.6584 23.6788 22.7238 24.3901 16.8105 25.5582C8.42332 27.2178 6.82338 29.903 6.52115 30.9413C5.85162 31.4436 4.7673 32.6414 4.59551 34.0506C4.45742 35.1744 4.14473 35.6327 4.14473 35.6327L4 35.8203V43.7524L4.01634 43.8971C4.47095 46.0035 6.64343 47.118 10.2987 47.118C11.4644 47.118 12.3389 46.9986 12.305 46.9986C12.3359 46.9968 12.5149 46.9933 12.8263 46.9872C13.0267 46.9832 13.2819 46.9781 13.5876 46.9718C13.5077 46.7501 13.435 46.5256 13.3722 46.2956C13.3115 46.0741 13.2558 45.851 13.2129 45.6224C13.1098 45.0843 13.0519 44.5304 13.0519 43.9621C13.0519 39.0873 16.9984 35.1213 21.8491 35.1213C26.7001 35.1213 30.6468 39.0873 30.6468 43.9621C30.6468 44.403 30.604 44.8306 30.5424 45.2542C30.5088 45.4842 30.4697 45.7124 30.4182 45.9355C30.3653 46.1667 30.3099 46.3952 30.2397 46.6197C38.9263 46.4326 49.4842 46.1983 58.8753 45.9733C58.3038 43.744 58 41.4075 58 39C58 28.3259 63.9729 19.0468 72.7587 14.3226Z" fill="#3563E9"/>
<path d="M65.76 47C65.0133 47 64.44 46.68 64.04 46.04C63.64 45.4 63.6 44.72 63.92 44L75.16 17.16C75.56 16.2267 76.2133 15.76 77.12 15.76C78.08 15.76 78.7333 16.2267 79.08 17.16L90.36 44.08C90.6533 44.8267 90.6 45.5067 90.2 46.12C89.8267 46.7067 89.2533 47 88.48 47C88.08 47 87.6933 46.8933 87.32 46.68C86.9733 46.44 86.72 46.12 86.56 45.72L76.64 21.08H77.76L67.68 45.72C67.4933 46.1467 67.2133 46.4667 66.84 46.68C66.4933 46.8933 66.1333 47 65.76 47ZM67.88 40.12L69.48 36.68H85.16L86.76 40.12H67.88ZM96.685 33.32C96.685 31.72 97.0717 30.2933 97.845 29.04C98.645 27.76 99.7117 26.7467 101.045 26C102.378 25.2533 103.845 24.88 105.445 24.88C107.045 24.88 108.232 25.1467 109.005 25.68C109.805 26.1867 110.112 26.8 109.925 27.52C109.845 27.8933 109.685 28.1867 109.445 28.4C109.232 28.5867 108.978 28.7067 108.685 28.76C108.392 28.8133 108.072 28.8 107.725 28.72C106.018 28.3733 104.485 28.3467 103.125 28.64C101.765 28.9333 100.685 29.48 99.885 30.28C99.1117 31.08 98.725 32.0933 98.725 33.32H96.685ZM96.725 47C96.085 47 95.5917 46.84 95.245 46.52C94.8983 46.1733 94.725 45.6667 94.725 45V27.12C94.725 26.48 94.8983 25.9867 95.245 25.64C95.5917 25.2933 96.085 25.12 96.725 25.12C97.3917 25.12 97.885 25.2933 98.205 25.64C98.5517 25.96 98.725 26.4533 98.725 27.12V45C98.725 45.64 98.5517 46.1333 98.205 46.48C97.885 46.8267 97.3917 47 96.725 47Z" fill="black"/>
<path d="M124.098 47.16C122.018 47.16 120.138 46.68 118.458 45.72C116.805 44.7333 115.485 43.4 114.498 41.72C113.538 40.04 113.058 38.1467 113.058 36.04C113.058 33.9333 113.498 32.0533 114.378 30.4C115.285 28.72 116.511 27.4 118.058 26.44C119.605 25.4533 121.351 24.96 123.298 24.96C124.871 24.96 126.325 25.2933 127.658 25.96C128.991 26.6 130.111 27.48 131.018 28.6V17.8C131.018 17.1867 131.205 16.6933 131.578 16.32C131.978 15.9467 132.471 15.76 133.058 15.76C133.671 15.76 134.165 15.9467 134.538 16.32C134.911 16.6933 135.098 17.1867 135.098 17.8V36.04C135.098 38.1467 134.605 40.04 133.618 41.72C132.658 43.4 131.351 44.7333 129.698 45.72C128.045 46.68 126.178 47.16 124.098 47.16ZM124.098 43.56C125.458 43.56 126.671 43.24 127.738 42.6C128.805 41.9333 129.645 41.0267 130.258 39.88C130.871 38.7333 131.178 37.4533 131.178 36.04C131.178 34.6 130.871 33.32 130.258 32.2C129.645 31.08 128.805 30.2 127.738 29.56C126.671 28.8933 125.458 28.56 124.098 28.56C122.765 28.56 121.551 28.8933 120.458 29.56C119.391 30.2 118.538 31.08 117.898 32.2C117.285 33.32 116.978 34.6 116.978 36.04C116.978 37.4533 117.285 38.7333 117.898 39.88C118.538 41.0267 119.391 41.9333 120.458 42.6C121.551 43.24 122.765 43.56 124.098 43.56ZM144.263 33.32C144.263 31.72 144.65 30.2933 145.423 29.04C146.223 27.76 147.29 26.7467 148.623 26C149.956 25.2533 151.423 24.88 153.023 24.88C154.623 24.88 155.81 25.1467 156.583 25.68C157.383 26.1867 157.69 26.8 157.503 27.52C157.423 27.8933 157.263 28.1867 157.023 28.4C156.81 28.5867 156.556 28.7067 156.263 28.76C155.97 28.8133 155.65 28.8 155.303 28.72C153.596 28.3733 152.063 28.3467 150.703 28.64C149.343 28.9333 148.263 29.48 147.463 30.28C146.69 31.08 146.303 32.0933 146.303 33.32H144.263ZM144.303 47C143.663 47 143.17 46.84 142.823 46.52C142.476 46.1733 142.303 45.6667 142.303 45V27.12C142.303 26.48 142.476 25.9867 142.823 25.64C143.17 25.2933 143.663 25.12 144.303 25.12C144.97 25.12 145.463 25.2933 145.783 25.64C146.13 25.96 146.303 26.4533 146.303 27.12V45C146.303 45.64 146.13 46.1333 145.783 46.48C145.463 46.8267 144.97 47 144.303 47ZM164.196 47C163.61 47 163.116 46.8133 162.716 46.44C162.343 46.04 162.156 45.5467 162.156 44.96V27.16C162.156 26.5467 162.343 26.0533 162.716 25.68C163.116 25.3067 163.61 25.12 164.196 25.12C164.81 25.12 165.303 25.3067 165.676 25.68C166.05 26.0533 166.236 26.5467 166.236 27.16V44.96C166.236 45.5467 166.05 46.04 165.676 46.44C165.303 46.8133 164.81 47 164.196 47ZM164.196 21.56C163.476 21.56 162.85 21.3067 162.316 20.8C161.81 20.2667 161.556 19.64 161.556 18.92C161.556 18.2 161.81 17.5867 162.316 17.08C162.85 16.5467 163.476 16.28 164.196 16.28C164.916 16.28 165.53 16.5467 166.036 17.08C166.57 17.5867 166.836 18.2 166.836 18.92C166.836 19.64 166.57 20.2667 166.036 20.8C165.53 21.3067 164.916 21.56 164.196 21.56ZM181.227 46.96C180.4 46.96 179.76 46.52 179.307 45.64L170.827 27.76C170.613 27.3067 170.587 26.8667 170.747 26.44C170.933 25.9867 171.28 25.64 171.787 25.4C172.24 25.16 172.693 25.12 173.147 25.28C173.627 25.44 173.987 25.7467 174.227 26.2L182.147 43.28H180.227L188.067 26.2C188.307 25.7467 188.667 25.44 189.147 25.28C189.653 25.12 190.16 25.16 190.667 25.4C191.147 25.6133 191.467 25.9467 191.627 26.4C191.787 26.8533 191.76 27.3067 191.547 27.76L183.067 45.64C182.667 46.52 182.053 46.96 181.227 46.96ZM205.239 47.16C203.026 47.16 201.053 46.6933 199.319 45.76C197.613 44.8 196.266 43.4933 195.279 41.84C194.319 40.16 193.839 38.24 193.839 36.08C193.839 33.8933 194.293 31.9733 195.199 30.32C196.133 28.64 197.413 27.3333 199.039 26.4C200.666 25.44 202.533 24.96 204.639 24.96C206.719 24.96 208.506 25.4267 209.999 26.36C211.493 27.2667 212.626 28.5333 213.399 30.16C214.199 31.76 214.599 33.6133 214.599 35.72C214.599 36.2267 214.426 36.6533 214.079 37C213.733 37.32 213.293 37.48 212.759 37.48H196.639V34.28H212.639L210.999 35.4C210.973 34.0667 210.706 32.88 210.199 31.84C209.693 30.7733 208.973 29.9333 208.039 29.32C207.106 28.7067 205.973 28.4 204.639 28.4C203.119 28.4 201.813 28.7333 200.719 29.4C199.653 30.0667 198.839 30.9867 198.279 32.16C197.719 33.3067 197.439 34.6133 197.439 36.08C197.439 37.5467 197.773 38.8533 198.439 40C199.106 41.1467 200.026 42.0533 201.199 42.72C202.373 43.3867 203.719 43.72 205.239 43.72C206.066 43.72 206.906 43.5733 207.759 43.28C208.639 42.96 209.346 42.6 209.879 42.2C210.279 41.9067 210.706 41.76 211.159 41.76C211.639 41.7333 212.053 41.8667 212.399 42.16C212.853 42.56 213.093 43 213.119 43.48C213.146 43.96 212.933 44.3733 212.479 44.72C211.573 45.44 210.439 46.0267 209.079 46.48C207.746 46.9333 206.466 47.16 205.239 47.16ZM221.763 33.32C221.763 31.72 222.15 30.2933 222.923 29.04C223.723 27.76 224.79 26.7467 226.123 26C227.456 25.2533 228.923 24.88 230.523 24.88C232.123 24.88 233.31 25.1467 234.083 25.68C234.883 26.1867 235.19 26.8 235.003 27.52C234.923 27.8933 234.763 28.1867 234.523 28.4C234.31 28.5867 234.056 28.7067 233.763 28.76C233.47 28.8133 233.15 28.8 232.803 28.72C231.096 28.3733 229.563 28.3467 228.203 28.64C226.843 28.9333 225.763 29.48 224.963 30.28C224.19 31.08 223.803 32.0933 223.803 33.32H221.763ZM221.803 47C221.163 47 220.67 46.84 220.323 46.52C219.976 46.1733 219.803 45.6667 219.803 45V27.12C219.803 26.48 219.976 25.9867 220.323 25.64C220.67 25.2933 221.163 25.12 221.803 25.12C222.47 25.12 222.963 25.2933 223.283 25.64C223.63 25.96 223.803 26.4533 223.803 27.12V45C223.803 45.64 223.63 46.1333 223.283 46.48C222.963 46.8267 222.47 47 221.803 47Z" fill="#3563E9"/>
</svg>
