<svg width="240" height="135" viewBox="0 0 240 135" fill="none" xmlns="http://www.w3.org/2000/svg">
<rect width="240" height="135" fill="white"/>
<path d="M87.4841 63.0499C87.3651 61.6081 87.2317 59.9764 86.971 58.5684C86.79 57.5837 86.392 56.2725 85.0466 56.2725C84.9118 56.2725 84.7769 56.2858 84.6436 56.2997C84.5603 56.3076 84.4771 56.3189 84.3408 56.3215C84.3408 56.3215 84.2944 56.2789 84.239 56.117C83.8439 54.9799 82.1864 53.5656 80.0612 51.8357C79.5376 51.4112 78.911 50.8999 78.6441 50.6362C78.742 49.955 78.7276 49.1182 78.2555 48.5416C78.0364 48.2725 77.6238 47.9511 76.9127 47.9511C76.8083 47.9511 76.6973 47.9575 76.4501 47.9796C75.937 47.9796 74.9089 47.7677 73.4853 47.472C69.8148 46.715 62.9825 45.3045 52.738 45.0826C37.8213 44.7858 26.0997 55.603 25.6165 56.0585L25.2709 56.3812C24.6584 56.6788 22.7238 57.3901 16.8105 58.5582C8.42332 60.2178 6.82338 62.903 6.52115 63.9413C5.85162 64.4436 4.7673 65.6414 4.59551 67.0506C4.45742 68.1744 4.14473 68.6327 4.14473 68.6327L4 68.8203V76.7524L4.01634 76.8971C4.47095 79.0035 6.64343 80.118 10.2987 80.118C11.4644 80.118 12.3389 79.9986 12.305 79.9986C12.3558 79.9957 12.8066 79.988 13.5876 79.9718C13.5077 79.7501 13.435 79.5256 13.3722 79.2956C13.3115 79.0741 13.2558 78.851 13.2129 78.6224C13.1098 78.0843 13.0519 77.5304 13.0519 76.9621C13.0519 72.0873 16.9984 68.1213 21.8491 68.1213C26.7001 68.1213 30.6468 72.0873 30.6468 76.9621C30.6468 77.403 30.604 77.8306 30.5424 78.2542C30.5088 78.4842 30.4697 78.7124 30.4182 78.9355C30.3653 79.1667 30.3099 79.3952 30.2397 79.6197C41.2254 79.3831 55.2042 79.071 66.0306 78.7977C65.9829 78.5744 65.9524 78.3484 65.9222 78.12C65.8917 77.8941 65.8744 77.6685 65.8627 77.4402C65.8547 77.2807 65.8389 77.1242 65.8389 76.9621C65.8389 72.0873 69.7856 68.1213 74.6364 68.1213C79.4185 68.1213 83.315 71.9783 83.4235 76.7601C83.4235 76.8266 83.4339 76.8941 83.4339 76.9621C83.4339 77.1334 83.418 77.3006 83.4073 77.4706C83.3941 77.7124 83.3703 77.9527 83.3387 78.1892C85.4057 77.8465 86.9602 76.7519 87.8603 74.9816C89.4 71.9546 88.6151 67.8558 88.0624 66.9854C87.7641 66.5146 87.616 64.6735 87.4841 63.0499Z" fill="#3563E9"/>
<path d="M15.0217 79.94C16.1683 82.5885 18.7913 84.4413 21.8485 84.4413C25.0155 84.4413 27.713 82.4502 28.789 79.6505C28.8741 79.4274 28.9501 79.1988 29.0151 78.9651C29.0771 78.742 29.1286 78.5134 29.171 78.2823C29.2463 77.8533 29.2939 77.4122 29.2939 76.961C29.2939 72.8289 25.9617 69.4802 21.8497 69.4802C17.7379 69.4802 14.4058 72.8289 14.4058 76.961C14.4058 77.5215 14.4719 78.067 14.5888 78.5932C14.6383 78.8217 14.6978 79.0461 14.7698 79.2652C14.8433 79.4965 14.9273 79.7195 15.0217 79.94Z" fill="#3563E9"/>
<path d="M67.414 78.7606C68.2176 82.0201 71.1416 84.4411 74.6334 84.4411C78.2842 84.4411 81.3151 81.7968 81.9494 78.3127C81.9902 78.087 82.0218 77.8598 82.0442 77.6273C82.0643 77.4071 82.0775 77.1864 82.0775 76.9607C82.0775 76.9552 82.0775 76.9499 82.0775 76.9433C82.0696 72.8207 78.7387 69.4799 74.6334 69.4799C70.5228 69.4799 67.1895 72.8286 67.1895 76.9607C67.1895 77.1107 67.2041 77.2568 67.2119 77.4055C67.2252 77.6353 67.2476 77.8608 67.2819 78.0841C67.3163 78.313 67.3613 78.5387 67.414 78.7606Z" fill="#3563E9"/>
<circle cx="86" cy="72" r="28" fill="white"/>
<path d="M65.76 80C65.0133 80 64.44 79.68 64.04 79.04C63.64 78.4 63.6 77.72 63.92 77L75.16 50.16C75.56 49.2267 76.2133 48.76 77.12 48.76C78.08 48.76 78.7333 49.2267 79.08 50.16L90.36 77.08C90.6533 77.8267 90.6 78.5067 90.2 79.12C89.8267 79.7067 89.2533 80 88.48 80C88.08 80 87.6933 79.8933 87.32 79.68C86.9733 79.44 86.72 79.12 86.56 78.72L76.64 54.08H77.76L67.68 78.72C67.4933 79.1467 67.2133 79.4667 66.84 79.68C66.4933 79.8933 66.1333 80 65.76 80ZM67.88 73.12L69.48 69.68H85.16L86.76 73.12H67.88ZM96.685 66.32C96.685 64.72 97.0717 63.2933 97.845 62.04C98.645 60.76 99.7117 59.7467 101.045 59C102.378 58.2533 103.845 57.88 105.445 57.88C107.045 57.88 108.232 58.1467 109.005 58.68C109.805 59.1867 110.112 59.8 109.925 60.52C109.845 60.8933 109.685 61.1867 109.445 61.4C109.232 61.5867 108.978 61.7067 108.685 61.76C108.392 61.8133 108.072 61.8 107.725 61.72C106.018 61.3733 104.485 61.3467 103.125 61.64C101.765 61.9333 100.685 62.48 99.885 63.28C99.1117 64.08 98.725 65.0933 98.725 66.32H96.685ZM96.725 80C96.085 80 95.5917 79.84 95.245 79.52C94.8983 79.1733 94.725 78.6667 94.725 78V60.12C94.725 59.48 94.8983 58.9867 95.245 58.64C95.5917 58.2933 96.085 58.12 96.725 58.12C97.3917 58.12 97.885 58.2933 98.205 58.64C98.5517 58.96 98.725 59.4533 98.725 60.12V78C98.725 78.64 98.5517 79.1333 98.205 79.48C97.885 79.8267 97.3917 80 96.725 80Z" fill="black"/>
<path d="M124.098 80.16C122.018 80.16 120.138 79.68 118.458 78.72C116.805 77.7333 115.485 76.4 114.498 74.72C113.538 73.04 113.058 71.1467 113.058 69.04C113.058 66.9333 113.498 65.0533 114.378 63.4C115.285 61.72 116.511 60.4 118.058 59.44C119.605 58.4533 121.351 57.96 123.298 57.96C124.871 57.96 126.325 58.2933 127.658 58.96C128.991 59.6 130.111 60.48 131.018 61.6V50.8C131.018 50.1867 131.205 49.6933 131.578 49.32C131.978 48.9467 132.471 48.76 133.058 48.76C133.671 48.76 134.165 48.9467 134.538 49.32C134.911 49.6933 135.098 50.1867 135.098 50.8V69.04C135.098 71.1467 134.605 73.04 133.618 74.72C132.658 76.4 131.351 77.7333 129.698 78.72C128.045 79.68 126.178 80.16 124.098 80.16ZM124.098 76.56C125.458 76.56 126.671 76.24 127.738 75.6C128.805 74.9333 129.645 74.0267 130.258 72.88C130.871 71.7333 131.178 70.4533 131.178 69.04C131.178 67.6 130.871 66.32 130.258 65.2C129.645 64.08 128.805 63.2 127.738 62.56C126.671 61.8933 125.458 61.56 124.098 61.56C122.765 61.56 121.551 61.8933 120.458 62.56C119.391 63.2 118.538 64.08 117.898 65.2C117.285 66.32 116.978 67.6 116.978 69.04C116.978 70.4533 117.285 71.7333 117.898 72.88C118.538 74.0267 119.391 74.9333 120.458 75.6C121.551 76.24 122.765 76.56 124.098 76.56ZM144.263 66.32C144.263 64.72 144.65 63.2933 145.423 62.04C146.223 60.76 147.29 59.7467 148.623 59C149.956 58.2533 151.423 57.88 153.023 57.88C154.623 57.88 155.81 58.1467 156.583 58.68C157.383 59.1867 157.69 59.8 157.503 60.52C157.423 60.8933 157.263 61.1867 157.023 61.4C156.81 61.5867 156.556 61.7067 156.263 61.76C155.97 61.8133 155.65 61.8 155.303 61.72C153.596 61.3733 152.063 61.3467 150.703 61.64C149.343 61.9333 148.263 62.48 147.463 63.28C146.69 64.08 146.303 65.0933 146.303 66.32H144.263ZM144.303 80C143.663 80 143.17 79.84 142.823 79.52C142.476 79.1733 142.303 78.6667 142.303 78V60.12C142.303 59.48 142.476 58.9867 142.823 58.64C143.17 58.2933 143.663 58.12 144.303 58.12C144.97 58.12 145.463 58.2933 145.783 58.64C146.13 58.96 146.303 59.4533 146.303 60.12V78C146.303 78.64 146.13 79.1333 145.783 79.48C145.463 79.8267 144.97 80 144.303 80ZM164.196 80C163.61 80 163.116 79.8133 162.716 79.44C162.343 79.04 162.156 78.5467 162.156 77.96V60.16C162.156 59.5467 162.343 59.0533 162.716 58.68C163.116 58.3067 163.61 58.12 164.196 58.12C164.81 58.12 165.303 58.3067 165.676 58.68C166.05 59.0533 166.236 59.5467 166.236 60.16V77.96C166.236 78.5467 166.05 79.04 165.676 79.44C165.303 79.8133 164.81 80 164.196 80ZM164.196 54.56C163.476 54.56 162.85 54.3067 162.316 53.8C161.81 53.2667 161.556 52.64 161.556 51.92C161.556 51.2 161.81 50.5867 162.316 50.08C162.85 49.5467 163.476 49.28 164.196 49.28C164.916 49.28 165.53 49.5467 166.036 50.08C166.57 50.5867 166.836 51.2 166.836 51.92C166.836 52.64 166.57 53.2667 166.036 53.8C165.53 54.3067 164.916 54.56 164.196 54.56ZM181.227 79.96C180.4 79.96 179.76 79.52 179.307 78.64L170.827 60.76C170.613 60.3067 170.587 59.8667 170.747 59.44C170.933 58.9867 171.28 58.64 171.787 58.4C172.24 58.16 172.693 58.12 173.147 58.28C173.627 58.44 173.987 58.7467 174.227 59.2L182.147 76.28H180.227L188.067 59.2C188.307 58.7467 188.667 58.44 189.147 58.28C189.653 58.12 190.16 58.16 190.667 58.4C191.147 58.6133 191.467 58.9467 191.627 59.4C191.787 59.8533 191.76 60.3067 191.547 60.76L183.067 78.64C182.667 79.52 182.053 79.96 181.227 79.96ZM205.239 80.16C203.026 80.16 201.053 79.6933 199.319 78.76C197.613 77.8 196.266 76.4933 195.279 74.84C194.319 73.16 193.839 71.24 193.839 69.08C193.839 66.8933 194.293 64.9733 195.199 63.32C196.133 61.64 197.413 60.3333 199.039 59.4C200.666 58.44 202.533 57.96 204.639 57.96C206.719 57.96 208.506 58.4267 209.999 59.36C211.493 60.2667 212.626 61.5333 213.399 63.16C214.199 64.76 214.599 66.6133 214.599 68.72C214.599 69.2267 214.426 69.6533 214.079 70C213.733 70.32 213.293 70.48 212.759 70.48H196.639V67.28H212.639L210.999 68.4C210.973 67.0667 210.706 65.88 210.199 64.84C209.693 63.7733 208.973 62.9333 208.039 62.32C207.106 61.7067 205.973 61.4 204.639 61.4C203.119 61.4 201.813 61.7333 200.719 62.4C199.653 63.0667 198.839 63.9867 198.279 65.16C197.719 66.3067 197.439 67.6133 197.439 69.08C197.439 70.5467 197.773 71.8533 198.439 73C199.106 74.1467 200.026 75.0533 201.199 75.72C202.373 76.3867 203.719 76.72 205.239 76.72C206.066 76.72 206.906 76.5733 207.759 76.28C208.639 75.96 209.346 75.6 209.879 75.2C210.279 74.9067 210.706 74.76 211.159 74.76C211.639 74.7333 212.053 74.8667 212.399 75.16C212.853 75.56 213.093 76 213.119 76.48C213.146 76.96 212.933 77.3733 212.479 77.72C211.573 78.44 210.439 79.0267 209.079 79.48C207.746 79.9333 206.466 80.16 205.239 80.16ZM221.763 66.32C221.763 64.72 222.15 63.2933 222.923 62.04C223.723 60.76 224.79 59.7467 226.123 59C227.456 58.2533 228.923 57.88 230.523 57.88C232.123 57.88 233.31 58.1467 234.083 58.68C234.883 59.1867 235.19 59.8 235.003 60.52C234.923 60.8933 234.763 61.1867 234.523 61.4C234.31 61.5867 234.056 61.7067 233.763 61.76C233.47 61.8133 233.15 61.8 232.803 61.72C231.096 61.3733 229.563 61.3467 228.203 61.64C226.843 61.9333 225.763 62.48 224.963 63.28C224.19 64.08 223.803 65.0933 223.803 66.32H221.763ZM221.803 80C221.163 80 220.67 79.84 220.323 79.52C219.976 79.1733 219.803 78.6667 219.803 78V60.12C219.803 59.48 219.976 58.9867 220.323 58.64C220.67 58.2933 221.163 58.12 221.803 58.12C222.47 58.12 222.963 58.2933 223.283 58.64C223.63 58.96 223.803 59.4533 223.803 60.12V78C223.803 78.64 223.63 79.1333 223.283 79.48C222.963 79.8267 222.47 80 221.803 80Z" fill="#3563E9"/>
</svg>
