<svg width="745" height="748" viewBox="0 0 745 748" fill="none" xmlns="http://www.w3.org/2000/svg">
<g clip-path="url(#clip0_109_47)">
<g clip-path="url(#clip1_109_47)">
<path d="M143.984 227C105.833 315.918 113.149 423.902 143.984 541.749H358.013C384.778 423.768 398.327 312.238 358.013 227H143.984Z" fill="#658DF1"/>
<path d="M328.445 254.296H296.072V286.646H328.445V254.296Z" fill="#D6E4FD"/>
<path d="M276.288 254.296H243.915V286.646H276.288V254.296Z" fill="#D6E4FD"/>
<path d="M224.131 254.296H191.757V286.646H224.131V254.296Z" fill="#D6E4FD"/>
<path d="M327.546 327.98H295.172V360.33H327.546V327.98Z" fill="#D6E4FD"/>
<path d="M275.389 327.98H243.015V360.33H275.389V327.98Z" fill="#D6E4FD"/>
<path d="M223.231 327.98H190.858V360.33H223.231V327.98Z" fill="#D6E4FD"/>
<path d="M326.647 401.665H294.273V434.014H326.647V401.665Z" fill="white"/>
<path d="M274.49 401.665H242.116V434.014H274.49V401.665Z" fill="#D6E4FD"/>
<path d="M222.332 401.665H189.959V434.014H222.332V401.665Z" fill="#D6E4FD"/>
<path d="M345.748 455.349H313.374V487.698H345.748V455.349Z" fill="white"/>
<path d="M293.59 455.349H261.217V487.698H293.59V455.349Z" fill="white"/>
<path d="M241.433 455.349H209.059V487.698H241.433V455.349Z" fill="white"/>
<path d="M344.85 529.03H312.47V541.749H344.85V529.03Z" fill="white"/>
<path d="M292.689 529.03H260.32V541.749H292.689V529.03Z" fill="white"/>
<path d="M240.528 529.03H208.159V541.749H240.528V529.03Z" fill="white"/>
<path d="M673 428.379V516.972C672.996 521.042 672.095 525.047 670.377 528.622L668.9 527.215L666.05 524.509L650.275 509.552L654.195 527.87L649.584 528.149L649.224 528.171L640.854 528.686L633.534 529.137H633.506L623.062 529.781L612.864 530.404L609.465 530.608L587.81 531.939L578.578 532.508L574.393 532.766L563.324 533.443L548.477 534.355L545.722 534.527L502.147 537.201L474.432 538.908L470.133 539.165L469.811 539.187L468.06 539.294H468.05L464.253 539.53L458.799 539.863L449.965 540.4L446.064 540.636L434.815 541.334L423.973 542L413.728 541.334L380.692 539.187L359.274 537.791L358.573 537.748L320.556 535.279L292.037 533.421L274.614 532.294L246.104 530.436L232.961 529.588L228.672 529.309L218.124 528.622L170.061 525.497L166.482 525.261L166.283 525.25L148.87 524.123L138 523.414L160.838 499.352L161.151 499.019L170.061 489.635C176.471 476.589 182.626 463.415 200.957 457.08L202.955 454.975L230.481 425.974L235.177 425.899L358.573 424.052L377.208 423.773L415.385 423.204L429.219 423L439.436 423.676L527.949 429.56L533.716 429.947L563.144 431.901L590.376 433.705L603.32 434.564L606.482 434.779L606.691 434.789L608.282 434.897L612.542 434.467L617.779 433.941L619.72 433.748L620.61 433.651L639.254 431.783L640.816 431.622L645.276 431.171L671.106 471.543L673 428.379Z" fill="#3F3D56"/>
<path d="M631.524 524.547C616.631 503.003 605.775 448.302 610.024 425.718C609.838 424.981 618.723 437.37 618.752 436.602C618.893 432.808 621.598 429.868 624.794 430.036L664.957 432.139C665.951 432.225 666.905 432.569 667.723 433.139C668.542 433.708 669.198 434.482 669.624 435.384L699.989 493.492C700.468 494.421 700.756 495.437 700.834 496.479C701.13 500.26 698.788 503.61 695.602 503.962L641.755 509.904C641.577 509.924 641.399 509.934 641.221 509.934C638.663 509.927 632.264 527.453 631.524 524.547Z" fill="#EFF5FF"/>
<path d="M460.561 524.346L460.956 526.484L462.484 534.712C462.793 536.386 463.271 538.023 463.91 539.6C464.101 540.094 464.318 540.578 464.547 541.05C464.662 541.287 464.776 541.512 464.904 541.749H575.166L593.467 539.632L593.696 539.6C597.468 539.082 600.974 537.364 603.694 534.702C605.95 532.456 607.74 529.788 608.962 526.849C610.184 523.911 610.813 520.76 610.813 517.578C610.838 516.69 610.812 515.8 610.736 514.914C610.637 513.659 610.441 512.412 610.15 511.187C612.21 487.823 606.784 465.046 594.295 442.823C593.271 438.073 590.765 433.77 587.138 430.534C584.157 427.898 580.365 426.359 576.389 426.172L487.382 422.52C483.992 422.411 480.647 423.321 477.779 425.13C472.328 428.503 468.368 434.863 467.591 442.511C460.098 466.553 457.598 491.871 460.243 516.912C459.998 519.393 460.105 521.896 460.561 524.346Z" fill="#EFF5FF"/>
<path d="M427.799 534.348L198.957 527.74C196.08 527.657 153.532 544.317 151.466 541.726C146.943 536.052 146.832 526.71 151.22 520.859L251.189 422.482C252.105 421.151 253.324 420.052 254.746 419.273C256.169 418.495 257.756 418.059 259.379 418H443.588C444.459 418.001 445.325 418.129 446.159 418.38C452.299 420.217 456.124 428.142 454.704 436.083L439.17 522.921C437.957 529.6 433.357 534.33 428.052 534.352C427.968 534.352 427.883 534.351 427.799 534.348Z" fill="#EFF5FF"/>
<path d="M667.054 438.986L472.691 425.592L242.582 426.336C270.888 396.427 395.299 359.962 528.542 404.012C661.841 408.477 671.522 435.266 671.522 435.266L673.185 437.869L667.054 438.986Z" fill="#3563E9"/>
<path d="M744.054 524.077C743.565 525.799 742.883 527.46 742.022 529.03C740.713 531.429 739.009 533.589 736.98 535.421C736.83 535.561 736.679 535.69 736.529 535.808C734.689 537.417 732.611 538.732 730.369 539.707C729.375 540.148 728.351 540.518 727.305 540.814C726.617 541.007 725.907 541.179 725.198 541.308C724.236 541.499 723.263 541.624 722.285 541.684C721.736 541.727 721.177 541.748 720.607 541.748H474.575L462.266 542.414L450.634 541.748H24.3926C23.8981 541.748 23.3928 541.738 22.909 541.695C21.577 541.619 20.2536 541.433 18.9529 541.136L22.909 540.556L29.4667 539.6L42.7004 537.666L75.0698 532.94L87.6585 531.103L118.233 526.645L123.339 525.904L137.583 523.82L150.15 524.067L169.383 524.453H169.619L173.984 524.539L203.214 525.119L213.954 525.334L292.732 526.892L299.935 527.032L310.675 527.246L344.872 527.934L388.013 528.783L390.894 528.836L437.088 529.76L437.69 529.771L461.255 528.106L484.315 526.484L501.784 525.259L507.417 524.862L507.632 524.851L508.879 524.765L509.696 524.701L516.555 524.217L542.216 522.412L553.644 521.607L558.567 521.263L563.717 520.898L610.814 517.578L623.93 516.655H623.94L631.111 516.15L644.258 515.226H644.269L657.782 514.27H657.793L663.039 513.905L665.05 513.765L680.358 512.691L689.614 512.035L705.503 510.918L710.416 510.574L717.017 510.102L718.823 509.973L719.199 509.951C719.199 509.951 724.725 510.07 731.928 514.066C734.209 515.335 736.365 516.817 738.367 518.492C739.755 519.644 741.076 520.874 742.323 522.176C742.904 522.778 743.474 523.411 744.054 524.077Z" fill="#3563E9"/>
<path d="M500.333 541.749H517.006L515.48 540.331L514.695 539.6L514.673 539.579L511.158 536.324L508.363 533.724L506.095 535.991L505.181 536.904L502.483 539.6L501.805 540.277L500.333 541.749Z" fill="#2F2E41"/>
<path d="M591.678 541.749H617.318L621.263 539.6L633.046 533.176L635.819 531.662L657.782 514.27H657.793L663.308 509.908L666.168 507.642L669.704 504.838L687.174 491.013C687.657 490.629 688.107 490.205 688.518 489.745C689.469 488.668 690.19 487.409 690.638 486.044C691.085 484.679 691.249 483.237 691.119 481.807C691.112 481.684 691.094 481.561 691.065 481.441C690.874 479.867 690.329 478.357 689.471 477.023C688.613 475.689 687.463 474.566 686.109 473.739C684.201 472.57 681.97 472.036 679.738 472.216C677.506 472.395 675.39 473.279 673.693 474.738L660.878 485.534L655.761 489.842L635.948 506.535L623.94 516.655H623.929L621.64 518.588L600.494 534.938L594.452 539.6L591.678 541.749Z" fill="#FFB6B6"/>
<path d="M680.449 504.013C681.125 504.106 681.814 503.974 682.408 503.638C683.002 503.302 683.47 502.781 683.739 502.153C684.085 501.386 684.663 500.746 685.391 500.322C685.533 500.242 685.68 500.171 685.831 500.11C686.75 499.764 687.572 499.202 688.227 498.47C688.882 497.739 689.351 496.861 689.594 495.91C690.347 492.768 692.763 489.721 695.191 487.371C697.848 484.799 700.684 482.332 702.648 479.2C705.48 474.681 706.275 468.339 700.81 464.569C698.461 463.002 695.643 462.291 692.831 462.558C686.944 463.036 682.075 466.626 677.451 470.104L678.609 467.834C673.624 471.721 667.905 474.562 661.794 476.187C662.851 477.147 661.935 479.068 660.578 479.515C659.221 479.962 657.758 479.491 656.36 479.195C654.598 478.821 652.42 478.853 651.725 480.955C651.573 481.462 651.528 481.996 651.592 482.521C651.656 483.047 651.828 483.554 652.098 484.01C657.006 492.738 663.669 500.357 671.666 506.389C673.442 507.728 675.505 509.045 677.715 508.783C679.925 508.521 681.805 505.776 680.449 504.013Z" fill="#3563E9"/>
<path d="M675.574 521.789L676.725 530.813L677.843 539.6L677.961 540.535L678.122 541.748H720.607C721.177 541.748 721.736 541.727 722.285 541.684C723.263 541.624 724.236 541.499 725.198 541.308L725.682 539.02L725.961 537.656L708.191 532.059L700.193 529.545H700.171L688.614 525.893L675.574 521.789Z" fill="#FFB6B6"/>
<path d="M659.072 500.584C659.943 502.507 661.115 505.074 662.427 507.986C662.717 508.609 663.007 509.253 663.308 509.909C663.867 511.155 664.448 512.444 665.05 513.765C667.705 519.641 670.597 526.022 672.865 531.017C674.747 535.196 676.209 538.418 676.735 539.6C676.897 539.933 676.972 540.105 676.972 540.105L677.961 540.535L680.788 541.749H720.608C721.177 541.749 721.736 541.727 722.285 541.684C723.263 541.624 724.236 541.499 725.198 541.308C725.907 541.179 726.617 541.007 727.305 540.814C728.351 540.518 729.375 540.148 730.369 539.708C732.611 538.733 734.689 537.417 736.529 535.808C736.615 535.067 736.787 533.874 736.97 532.424C737.257 530.259 737.411 528.077 737.432 525.893C737.432 524.142 733.132 521.306 731.928 514.066C731.523 511.421 731.519 508.73 731.917 506.084C734.142 489.777 733.357 464.823 717.63 459.946L706.32 440.159H684.744L681.24 450.482V450.493L679.229 456.412L678.025 459.946L677.767 460.29L670.07 470.377C670.07 470.377 668.845 471.935 667.168 474.395V474.405C664.747 477.923 662.643 481.647 660.879 485.534C659.727 488.053 658.897 490.705 658.406 493.43C657.926 495.829 658.158 498.315 659.072 500.584Z" fill="#2F2E41"/>
<path d="M704.543 420.217C688.69 432.267 671.035 441.857 667.708 455.118C667.708 455.118 669.701 434.282 660.403 438.231C644.779 444.867 650.065 408.779 654.447 402.878C661.749 393.042 686.371 387.453 686.371 387.453L703.839 397.035L704.543 420.217Z" fill="#2F2E41"/>
<path d="M676.938 434.839C692.059 434.839 704.317 422.591 704.317 407.482C704.317 392.372 692.059 380.124 676.938 380.124C661.817 380.124 649.56 392.372 649.56 407.482C649.56 422.591 661.817 434.839 676.938 434.839Z" fill="#FFB6B6"/>
<path d="M686.798 397.014L687.852 401.638L669.435 405.827C669.418 404.892 669.209 403.97 668.819 403.12C668.429 402.27 667.868 401.509 667.17 400.886C667.567 402.699 667.522 404.581 667.038 406.373C657.105 411.942 657.676 413.915 649.648 412.495C649.11 412.617 648.553 412.633 648.008 412.54C647.464 412.447 646.943 412.248 646.475 411.954C646.008 411.66 645.603 411.277 645.284 410.827C644.964 410.377 644.737 409.868 644.614 409.33C641.384 395.153 640.323 380.664 654.441 377.145C657.873 376.287 661.441 376.123 664.937 376.662C668.433 377.201 671.786 378.431 674.8 380.282C677.814 382.132 680.427 384.566 682.488 387.439C684.548 390.312 686.013 393.567 686.798 397.014Z" fill="#2F2E41"/>
<path d="M682.294 415.462C681.392 411.513 679.624 407.813 677.118 404.629C674.612 401.445 671.43 398.857 667.801 397.051C664.173 395.245 660.189 394.266 656.136 394.185C652.083 394.104 648.062 394.923 644.365 396.583C645.645 392.805 648.238 389.611 651.672 387.578L672.402 378.585C682.628 376.259 698.815 369.657 706.201 375.979C713.006 381.787 709.694 393.156 715.96 399.524C722.827 406.502 723.41 414.752 721.463 419.498C719.21 424.988 714.702 432.479 709.077 434.1C708.785 432.168 707.82 430.4 706.353 429.108C706.759 430.95 706.794 432.853 706.457 434.708L672.402 461.848C675.583 459.084 678.293 451.961 680.159 443.939C681.264 439.191 687.855 437.524 682.509 429.465C677.164 421.406 683.019 418.648 682.294 415.462Z" fill="#2F2E41"/>
<path d="M709.569 385.191L709.474 385.382C709.357 385.636 709.24 385.891 709.145 386.156L709.134 386.167C708.614 386.358 708.03 386.05 707.457 385.562C707.546 386.709 707.61 387.819 707.658 388.907L689.528 381.818C692.681 382.362 693.147 371.152 695.409 373.3C695.536 373.417 695.653 373.534 695.77 373.65C695.488 372.974 695.295 372.265 695.196 371.539C695.1 370.629 695.172 369.709 695.409 368.824C695.413 368.82 695.416 368.815 695.418 368.809C695.42 368.804 695.42 368.798 695.419 368.792C695.645 367.993 695.996 367.234 696.46 366.544C697.128 365.54 697.973 364.667 698.954 363.966C700.206 363.01 701.666 362.362 703.215 362.075C704.764 361.787 706.359 361.868 707.871 362.311C711.334 363.62 714.197 366.153 715.917 369.429C717.485 371.95 718.285 374.872 718.221 377.84C718.156 378.619 717.988 379.386 717.722 380.121C717.391 381.153 716.826 382.094 716.071 382.873C715.316 383.651 714.391 384.245 713.369 384.607C713.115 384.692 712.817 384.788 712.499 384.904C712.329 383.524 712.318 382.129 712.467 380.746C711.287 382.077 710.31 383.574 709.569 385.191Z" fill="#2F2E41"/>
<path d="M692.012 381.096C692.036 381.688 692.107 382.277 692.224 382.857C692.233 382.932 692.247 383.007 692.267 383.08C693.01 386.379 697.033 379.516 700.143 381.818C702.081 383.213 704.232 384.288 706.512 385C706.608 384.735 707.457 385.254 707.574 385C707.606 384.936 707.542 384.003 707.574 383.939C705.634 383.193 703.838 382.116 702.266 380.757C699.347 378.604 699.761 380.619 699.082 377.575C698.296 374.064 693.668 375.57 696.046 373.905L695.77 373.523C694.081 374.688 692.836 376.389 692.235 378.349C692.236 378.355 692.235 378.361 692.233 378.366C692.231 378.372 692.228 378.377 692.224 378.381C692.047 379.275 691.975 380.186 692.012 381.096Z" fill="#3563E9"/>
<path d="M687.464 541.749H707.191L707.417 539.6L708.191 532.059L708.503 529.094L709.836 516.193L710.416 510.574L711.695 498.189L712.125 494.021C712.399 491.26 711.577 488.503 709.835 486.343C708.094 484.183 705.573 482.793 702.816 482.473C702.416 482.427 702.014 482.401 701.612 482.397H701.579C701.091 482.403 700.602 482.435 700.117 482.494C697.632 482.85 695.354 484.076 693.689 485.953C692.115 487.714 691.183 489.955 691.044 492.313L691.033 492.474V492.484L690.098 505.418L689.614 512.035L689.356 515.699L688.614 525.893L688.303 530.19L687.625 539.6L687.464 541.749Z" fill="#FFB6B6"/>
<path d="M716.738 507.913C717.276 507.493 717.663 506.909 717.837 506.249C718.011 505.589 717.963 504.891 717.702 504.26C717.393 503.477 717.338 502.616 717.543 501.799C717.584 501.642 717.636 501.487 717.698 501.337C718.091 500.438 718.262 499.457 718.195 498.478C718.129 497.499 717.826 496.55 717.314 495.713C715.589 492.981 715.092 489.124 715.103 485.747C715.114 482.051 715.327 478.299 714.453 474.708C713.192 469.527 709.202 464.531 702.686 465.81C699.923 466.397 697.446 467.917 695.674 470.115C691.908 474.661 691.082 480.651 690.346 486.388L689.527 483.974C688.833 490.254 686.877 496.33 683.776 501.836C685.202 501.75 685.939 503.747 685.312 505.03C684.685 506.312 683.326 507.031 682.138 507.824C680.64 508.823 679.143 510.404 680.164 512.369C680.421 512.832 680.772 513.237 681.193 513.558C681.615 513.879 682.098 514.11 682.613 514.235C692.294 516.815 702.405 517.367 712.309 515.856C714.509 515.519 716.893 514.962 718.248 513.198C719.603 511.434 718.948 508.173 716.738 507.913Z" fill="#3563E9"/>
<path d="M507.417 530.34C507.417 533.366 508.62 536.268 510.761 538.407C512.902 540.547 515.806 541.749 518.834 541.749H542.227C545.255 541.749 548.159 540.547 550.3 538.407C552.441 536.268 553.644 533.366 553.644 530.34V521.642C553.644 519.802 553.198 517.988 552.344 516.357C551.49 514.725 550.254 513.324 548.742 512.274C547.229 511.223 545.484 510.554 543.656 510.324C541.828 510.093 539.972 510.308 538.245 510.95L514.853 519.648C512.67 520.459 510.787 521.919 509.458 523.83C508.129 525.741 507.417 528.013 507.417 530.34Z" fill="#2F2E41"/>
</g>
<path d="M149.022 211.94C150.168 214.588 152.791 216.441 155.849 216.441C159.016 216.441 161.713 214.45 162.789 211.65C162.874 211.427 162.95 211.199 163.015 210.965C163.077 210.742 163.129 210.513 163.171 210.282C163.246 209.853 163.294 209.412 163.294 208.961C163.294 204.829 159.962 201.48 155.85 201.48C151.738 201.48 148.406 204.829 148.406 208.961C148.406 209.522 148.472 210.067 148.589 210.593C148.638 210.822 148.698 211.046 148.77 211.265C148.843 211.497 148.927 211.719 149.022 211.94Z" fill="#3563E9"/>
<path fill-rule="evenodd" clip-rule="evenodd" d="M206.759 179.323C202.946 178.543 196.341 177.291 186.738 177.083C171.821 176.786 160.1 187.603 159.617 188.059L159.271 188.381C158.658 188.679 156.724 189.39 150.811 190.558C142.423 192.218 140.823 194.903 140.521 195.941C139.852 196.444 138.767 197.641 138.596 199.051C138.457 200.174 138.145 200.633 138.145 200.633L138 200.82V208.752L138.016 208.897C138.471 211.004 140.643 212.118 144.299 212.118C145.464 212.118 146.339 211.999 146.305 211.999C146.336 211.997 146.515 211.993 146.826 211.987C147.027 211.983 147.282 211.978 147.588 211.972C147.508 211.75 147.435 211.526 147.372 211.296C147.311 211.074 147.256 210.851 147.213 210.622C147.11 210.084 147.052 209.53 147.052 208.962C147.052 204.087 150.998 200.121 155.849 200.121C160.7 200.121 164.647 204.087 164.647 208.962C164.647 209.403 164.604 209.831 164.542 210.254C164.509 210.484 164.47 210.712 164.418 210.936C164.365 211.167 164.31 211.395 164.24 211.62C172.926 211.433 183.484 211.198 192.875 210.973C192.304 208.744 192 206.408 192 204C192 193.326 197.973 184.047 206.759 179.323Z" fill="#3563E9"/>
<path d="M199.76 212C199.013 212 198.44 211.68 198.04 211.04C197.64 210.4 197.6 209.72 197.92 209L209.16 182.16C209.56 181.227 210.213 180.76 211.12 180.76C212.08 180.76 212.733 181.227 213.08 182.16L224.36 209.08C224.653 209.827 224.6 210.507 224.2 211.12C223.827 211.707 223.253 212 222.48 212C222.08 212 221.693 211.893 221.32 211.68C220.973 211.44 220.72 211.12 220.56 210.72L210.64 186.08H211.76L201.68 210.72C201.493 211.147 201.213 211.467 200.84 211.68C200.493 211.893 200.133 212 199.76 212ZM201.88 205.12L203.48 201.68H219.16L220.76 205.12H201.88ZM230.685 198.32C230.685 196.72 231.072 195.293 231.845 194.04C232.645 192.76 233.712 191.747 235.045 191C236.378 190.253 237.845 189.88 239.445 189.88C241.045 189.88 242.232 190.147 243.005 190.68C243.805 191.187 244.112 191.8 243.925 192.52C243.845 192.893 243.685 193.187 243.445 193.4C243.232 193.587 242.978 193.707 242.685 193.76C242.392 193.813 242.072 193.8 241.725 193.72C240.018 193.373 238.485 193.347 237.125 193.64C235.765 193.933 234.685 194.48 233.885 195.28C233.112 196.08 232.725 197.093 232.725 198.32H230.685ZM230.725 212C230.085 212 229.592 211.84 229.245 211.52C228.898 211.173 228.725 210.667 228.725 210V192.12C228.725 191.48 228.898 190.987 229.245 190.64C229.592 190.293 230.085 190.12 230.725 190.12C231.392 190.12 231.885 190.293 232.205 190.64C232.552 190.96 232.725 191.453 232.725 192.12V210C232.725 210.64 232.552 211.133 232.205 211.48C231.885 211.827 231.392 212 230.725 212Z" fill="black"/>
<path d="M258.098 212.16C256.018 212.16 254.138 211.68 252.458 210.72C250.805 209.733 249.485 208.4 248.498 206.72C247.538 205.04 247.058 203.147 247.058 201.04C247.058 198.933 247.498 197.053 248.378 195.4C249.285 193.72 250.511 192.4 252.058 191.44C253.605 190.453 255.351 189.96 257.298 189.96C258.871 189.96 260.325 190.293 261.658 190.96C262.991 191.6 264.111 192.48 265.018 193.6V182.8C265.018 182.187 265.205 181.693 265.578 181.32C265.978 180.947 266.471 180.76 267.058 180.76C267.671 180.76 268.165 180.947 268.538 181.32C268.911 181.693 269.098 182.187 269.098 182.8V201.04C269.098 203.147 268.605 205.04 267.618 206.72C266.658 208.4 265.351 209.733 263.698 210.72C262.045 211.68 260.178 212.16 258.098 212.16ZM258.098 208.56C259.458 208.56 260.671 208.24 261.738 207.6C262.805 206.933 263.645 206.027 264.258 204.88C264.871 203.733 265.178 202.453 265.178 201.04C265.178 199.6 264.871 198.32 264.258 197.2C263.645 196.08 262.805 195.2 261.738 194.56C260.671 193.893 259.458 193.56 258.098 193.56C256.765 193.56 255.551 193.893 254.458 194.56C253.391 195.2 252.538 196.08 251.898 197.2C251.285 198.32 250.978 199.6 250.978 201.04C250.978 202.453 251.285 203.733 251.898 204.88C252.538 206.027 253.391 206.933 254.458 207.6C255.551 208.24 256.765 208.56 258.098 208.56ZM278.263 198.32C278.263 196.72 278.65 195.293 279.423 194.04C280.223 192.76 281.29 191.747 282.623 191C283.956 190.253 285.423 189.88 287.023 189.88C288.623 189.88 289.81 190.147 290.583 190.68C291.383 191.187 291.69 191.8 291.503 192.52C291.423 192.893 291.263 193.187 291.023 193.4C290.81 193.587 290.556 193.707 290.263 193.76C289.97 193.813 289.65 193.8 289.303 193.72C287.596 193.373 286.063 193.347 284.703 193.64C283.343 193.933 282.263 194.48 281.463 195.28C280.69 196.08 280.303 197.093 280.303 198.32H278.263ZM278.303 212C277.663 212 277.17 211.84 276.823 211.52C276.476 211.173 276.303 210.667 276.303 210V192.12C276.303 191.48 276.476 190.987 276.823 190.64C277.17 190.293 277.663 190.12 278.303 190.12C278.97 190.12 279.463 190.293 279.783 190.64C280.13 190.96 280.303 191.453 280.303 192.12V210C280.303 210.64 280.13 211.133 279.783 211.48C279.463 211.827 278.97 212 278.303 212ZM298.196 212C297.61 212 297.116 211.813 296.716 211.44C296.343 211.04 296.156 210.547 296.156 209.96V192.16C296.156 191.547 296.343 191.053 296.716 190.68C297.116 190.307 297.61 190.12 298.196 190.12C298.81 190.12 299.303 190.307 299.676 190.68C300.05 191.053 300.236 191.547 300.236 192.16V209.96C300.236 210.547 300.05 211.04 299.676 211.44C299.303 211.813 298.81 212 298.196 212ZM298.196 186.56C297.476 186.56 296.85 186.307 296.316 185.8C295.81 185.267 295.556 184.64 295.556 183.92C295.556 183.2 295.81 182.587 296.316 182.08C296.85 181.547 297.476 181.28 298.196 181.28C298.916 181.28 299.53 181.547 300.036 182.08C300.57 182.587 300.836 183.2 300.836 183.92C300.836 184.64 300.57 185.267 300.036 185.8C299.53 186.307 298.916 186.56 298.196 186.56ZM315.227 211.96C314.4 211.96 313.76 211.52 313.307 210.64L304.827 192.76C304.613 192.307 304.587 191.867 304.747 191.44C304.933 190.987 305.28 190.64 305.787 190.4C306.24 190.16 306.693 190.12 307.147 190.28C307.627 190.44 307.987 190.747 308.227 191.2L316.147 208.28H314.227L322.067 191.2C322.307 190.747 322.667 190.44 323.147 190.28C323.653 190.12 324.16 190.16 324.667 190.4C325.147 190.613 325.467 190.947 325.627 191.4C325.787 191.853 325.76 192.307 325.547 192.76L317.067 210.64C316.667 211.52 316.053 211.96 315.227 211.96ZM339.239 212.16C337.026 212.16 335.053 211.693 333.319 210.76C331.613 209.8 330.266 208.493 329.279 206.84C328.319 205.16 327.839 203.24 327.839 201.08C327.839 198.893 328.293 196.973 329.199 195.32C330.133 193.64 331.413 192.333 333.039 191.4C334.666 190.44 336.533 189.96 338.639 189.96C340.719 189.96 342.506 190.427 343.999 191.36C345.493 192.267 346.626 193.533 347.399 195.16C348.199 196.76 348.599 198.613 348.599 200.72C348.599 201.227 348.426 201.653 348.079 202C347.733 202.32 347.293 202.48 346.759 202.48H330.639V199.28H346.639L344.999 200.4C344.973 199.067 344.706 197.88 344.199 196.84C343.693 195.773 342.973 194.933 342.039 194.32C341.106 193.707 339.973 193.4 338.639 193.4C337.119 193.4 335.813 193.733 334.719 194.4C333.653 195.067 332.839 195.987 332.279 197.16C331.719 198.307 331.439 199.613 331.439 201.08C331.439 202.547 331.773 203.853 332.439 205C333.106 206.147 334.026 207.053 335.199 207.72C336.373 208.387 337.719 208.72 339.239 208.72C340.066 208.72 340.906 208.573 341.759 208.28C342.639 207.96 343.346 207.6 343.879 207.2C344.279 206.907 344.706 206.76 345.159 206.76C345.639 206.733 346.053 206.867 346.399 207.16C346.853 207.56 347.093 208 347.119 208.48C347.146 208.96 346.933 209.373 346.479 209.72C345.573 210.44 344.439 211.027 343.079 211.48C341.746 211.933 340.466 212.16 339.239 212.16ZM355.763 198.32C355.763 196.72 356.15 195.293 356.923 194.04C357.723 192.76 358.79 191.747 360.123 191C361.456 190.253 362.923 189.88 364.523 189.88C366.123 189.88 367.31 190.147 368.083 190.68C368.883 191.187 369.19 191.8 369.003 192.52C368.923 192.893 368.763 193.187 368.523 193.4C368.31 193.587 368.056 193.707 367.763 193.76C367.47 193.813 367.15 193.8 366.803 193.72C365.096 193.373 363.563 193.347 362.203 193.64C360.843 193.933 359.763 194.48 358.963 195.28C358.19 196.08 357.803 197.093 357.803 198.32H355.763ZM355.803 212C355.163 212 354.67 211.84 354.323 211.52C353.976 211.173 353.803 210.667 353.803 210V192.12C353.803 191.48 353.976 190.987 354.323 190.64C354.67 190.293 355.163 190.12 355.803 190.12C356.47 190.12 356.963 190.293 357.283 190.64C357.63 190.96 357.803 191.453 357.803 192.12V210C357.803 210.64 357.63 211.133 357.283 211.48C356.963 211.827 356.47 212 355.803 212Z" fill="#3563E9"/>
</g>
<defs>
<clipPath id="clip0_109_47">
<rect width="744.848" height="747.077" fill="white"/>
</clipPath>
<clipPath id="clip1_109_47">
<rect width="745" height="316" fill="white" transform="translate(0 227)"/>
</clipPath>
</defs>
</svg>
