<svg width="255" height="266" viewBox="0 0 255 266" fill="none" xmlns="http://www.w3.org/2000/svg">
<g clip-path="url(#clip0_103_2)">
<path d="M253.7 36.4C254 56.8 254.6 77.3 254.6 97.7C254.6 115.5 253.8 133.2 253.7 151C253.7 159.3 255 167.6 254.7 175.9C253.9 199.6 252.5 223.4 251.4 247.1C251.2 250.6 251.2 254.1 250.9 257.6C250.6 261.6 248.8 264.8 244.3 265C238.9 265.2 233.4 265.2 228 265.1C222.2 265 216.5 264.6 210.7 264.4C209 264.3 207.3 265 205.7 264.7C187.9 260.6 170.2 265.7 152.5 264.8C136.4 264 120.3 262.8 104.1 262.7C88.1 262.6 72.2 263.7 56.2 263.9C46.4 264.1 36.6 263.8 26.8 263.5C21 263.3 15.2 262.8 9.40004 262.4C3.00004 261.9 2.20004 260.9 2.60004 254.7C4.00004 235.3 4.20004 215.9 2.40004 196.4C2.00004 191.8 1.10004 187.2 0.600039 182.6C-1.09996 168.4 0.700039 154.4 2.20004 140.4C2.90004 134.2 2.10004 127.8 1.60004 121.5C0.300039 104.9 -1.09996 88.6 2.00004 72.2C3.50004 64.3 3.50004 56 3.50004 47.8C3.60004 35 3.10004 22.2 2.60004 9.5C2.50004 5.6 3.60004 3.4 7.70004 3.2C22.9 2.5 38 1.3 53.1 1.3C66.9 1.3 80.7 3.2 94.5 3.1C110.3 3 126.1 1.3 141.9 0.999999C155.5 0.799999 169.2 1.8 182.8 2C188.1 2.1 193.4 1.7 198.7 1.5C202.8 1.4 207 1.3 211.1 1.1C217 0.799999 223 0.299999 228.9 0.0999991C233.8 -0.100001 238.8 -9.53674e-07 243.7 0.199999C248.6 0.399999 250.7 3.5 251 8.1C251.7 17.5 252.5 27 253.2 36.4C253.4 36.4 253.5 36.4 253.7 36.4ZM248.3 65.5C246.8 46.6 245.4 30.7 244.2 14.8C243.6 6.3 241.9 4.7 233.5 5.8C231.9 6 230.3 6.8 228.7 7C223.4 7.6 218.2 8.2 212.9 8.5C207.8 8.8 202.7 8.8 197.6 8.9C192.1 9 186.7 9.3 181.2 9.3C168.4 9.1 155.6 8.3 142.8 8.5C121.7 8.9 100.6 10.2 79.4 10.4C66.9 10.5 54.5 9 42 8.9C32.4 8.8 22.8 9.6 13.1 9.9C10.3 10 9.90004 11.6 10 13.9C10.4 21.5 11.3 29.2 11 36.8C10.2 53.7 8.30004 70.6 7.60004 87.6C7.20004 98 8.30004 108.5 8.90004 118.9C9.30004 125.2 10.4 131.4 10.3 137.7C10.2 142.6 8.40004 147.5 8.10004 152.4C7.10004 166.2 7.50004 179.9 8.80004 193.7C10.3 210.2 9.70004 226.9 10 243.5C10.1 247.1 8.80004 252 10.7 254.1C12.4 256 17.4 255.2 21 255.3C31.5 255.8 42.1 257.6 52.4 256.5C82.3 253.3 111.9 255.9 141.7 257.1C150.3 257.5 159 257.4 167.7 257C179.3 256.4 190.9 254.6 202.5 257.3C204.9 257.9 207.5 257.2 210 257.4C216.9 257.9 223.8 258.5 230.7 259C233.2 259.2 235.7 259.6 238.1 259.6C241.9 259.7 244 258 244.1 254C244.2 250.2 244.6 246.4 244.8 242.5C245.9 223.6 247.2 204.7 248.1 185.7C248.9 169.1 245.5 152.5 248.4 135.9C249.1 132.1 248.1 128 247.8 124C247.5 120.4 246.7 116.7 246.8 113.1C247.1 96.2 247.8 79.4 248.3 65.5Z" fill="#303135"/>
<path d="M51 110.5C50.2 98.2 55.6 88 62.1 78.3C66.3 72.1 73.2 72.6 78.6 74.1C94.6 78.5 101.2 91.5 97 107.8C96.8 108.6 96.5 109.4 96.4 110.2C95.3 125.5 84.8 132.9 72.5 138.7C67.4 141.1 60.4 138.8 56.7 133.6C52.8 128.2 50.7 122.2 50.9 115.4C51 113.9 51 112.2 51 110.5ZM61.6 95.8C62.7 96.4 64.5 98.2 66.3 98.3C70.4 98.6 77.9 91.4 76.2 88.9C74.5 86.3 70.7 84.5 67.5 83.6C64.4 82.9 61.4 88.6 61.6 95.8ZM64.2 115.5C64.9 115.2 65.5 114.8 66.2 114.5C65.1 112.4 64.1 110.2 62.7 108.3C62.5 108.1 59.2 109.2 59.1 110C58.3 113.8 61.4 114.6 64.2 115.5Z" fill="#303135"/>
<path d="M200 112.4C199.9 122.1 195.2 128.2 189.1 133C176.9 142.4 160.9 136.1 157.6 120.9C155 109.1 155.7 97.5 159.3 86C160.5 82 161.7 77.8 167.8 79.9C169.5 80.5 171.9 78.8 174 78.6C183.6 78 193.9 86.3 197.2 97.6C198.7 102.8 199.3 108.3 200 112.4ZM177.5 91.4C174.4 94.8 175.5 100.7 179.3 102C180.2 102.3 181.8 101.9 182.3 101.3C182.9 100.5 183.1 98.7 182.6 97.9C181.1 95.6 179.3 93.6 177.5 91.4Z" fill="#303135"/>
<path d="M113.9 158.5C114.6 153.7 115.1 148.4 116.4 143.3C116.8 141.8 119.1 140.7 120.6 139.5C121.3 141.3 122.6 143.1 122.6 144.8C122.6 148.6 121.6 152.4 121.5 156.2C121.4 159.9 120.5 164.6 127.1 163.1C127.4 163 128.1 165.1 128.6 166.2C126 167.3 123.3 169.6 120.8 169.3C118.7 169.1 116.4 166.4 114.9 164.3C114 163 114.3 160.8 113.9 158.5Z" fill="#303135"/>
<path d="M40.5 73C39.8 72.5 38.4 71.4 37 70.3C38 69 38.9 66.9 40.1 66.6C46.2 65.5 50.3 62.3 52.8 56.7C53.7 54.8 54.9 52.8 56.4 51.4C57.2 50.6 59.2 50.5 60.3 51C61.1 51.4 61.8 53.2 61.7 54.3C60.9 61.7 50.8 71.7 43.3 72.7C42.8 72.8 42.3 72.8 40.5 73Z" fill="#303135"/>
<path d="M207.2 75.7C198.8 75.8 189.5 67.5 189.1 60.1C189 58.7 190.6 57.1 191.4 55.6C192.8 56.4 195.3 57 195.6 58.1C197.2 64.4 201.6 67.2 207.2 69.3C208.5 69.8 209.7 71.8 209.8 73.3C209.7 74.2 207.7 75.2 207.2 75.7Z" fill="#303135"/>
<path d="M116.6 204.2C114.7 206.2 113.4 208.3 111.5 209.5C110.3 210.3 108 210.5 106.8 209.9C106 209.5 105.6 206.3 106.3 205.6C109.4 202.6 112.6 199.1 116.4 197.6C120.6 195.9 123.2 200.3 125.2 203.4C126.2 204.9 125.4 207.5 125.4 209.6C123.7 209 122 208.5 120.5 207.7C119.2 206.9 118.2 205.7 116.6 204.2Z" fill="#303135"/>
<path d="M61.6 95.8C61.4 88.5 64.4 82.9 67.6 83.7C70.8 84.5 74.6 86.4 76.3 89C77.9 91.4 70.4 98.6 66.4 98.4C64.5 98.2 62.7 96.4 61.6 95.8Z" fill="white"/>
<path d="M64.2 115.5C61.4 114.6 58.3 113.8 59.1 109.9C59.3 109.1 62.6 108 62.7 108.2C64.1 110.1 65.1 112.3 66.2 114.4C65.5 114.8 64.9 115.2 64.2 115.5Z" fill="white"/>
<path d="M177.5 91.4C179.2 93.5 181.1 95.6 182.6 97.9C183.1 98.7 182.9 100.4 182.3 101.3C181.9 102 180.2 102.3 179.3 102C175.5 100.7 174.4 94.8 177.5 91.4Z" fill="white"/>
</g>
<defs>
<clipPath id="clip0_103_2">
<rect width="254.9" height="265.1" fill="white"/>
</clipPath>
</defs>
</svg>
