<svg width="256" height="266" viewBox="0 0 256 266" fill="none" xmlns="http://www.w3.org/2000/svg">
<g clip-path="url(#clip0_2_927)">
<path d="M254.2 36.9C254.5 57.3 255.1 77.8 255.1 98.2C255.1 116 254.3 133.7 254.2 151.5C254.2 159.8 255.5 168.1 255.2 176.4C254.4 200.1 253 223.9 251.9 247.6C251.7 251.1 251.7 254.6 251.4 258.1C251.1 262.1 249.3 265.3 244.8 265.5C239.4 265.7 233.9 265.7 228.5 265.6C222.7 265.5 217 265.1 211.2 264.9C209.5 264.8 207.8 265.5 206.2 265.2C188.4 261.1 170.7 266.2 153 265.3C136.9 264.5 120.8 263.3 104.6 263.2C88.6 263.1 72.7 264.2 56.7 264.4C46.9 264.6 37.1 264.3 27.3 264C21.5 263.8 15.7 263.3 9.90001 262.9C3.50001 262.4 2.70001 261.4 3.10001 255.2C4.50001 235.8 4.70001 216.4 2.90001 196.9C2.50001 192.3 1.60001 187.7 1.10001 183.1C-0.599992 168.9 1.20001 154.9 2.70001 140.9C3.40001 134.7 2.60001 128.3 2.10001 122C0.800009 105.4 -0.599991 89.1 2.50001 72.7C4.00001 64.8 4.00001 56.5 4.00001 48.3C4.10001 35.5 3.60001 22.7 3.10001 10C3.00001 6.10001 4.10001 3.90001 8.20001 3.70001C23.4 3.00001 38.5 1.80001 53.6 1.80001C67.4 1.80001 81.2 3.70001 95 3.60001C110.8 3.50001 126.6 1.80001 142.4 1.50001C156 1.30001 169.7 2.30001 183.3 2.50001C188.6 2.60001 193.9 2.20001 199.2 2.00001C203.3 1.90001 207.5 1.80001 211.6 1.60001C217.5 1.30001 223.5 0.800014 229.4 0.600014C234.3 0.400014 239.3 0.500014 244.2 0.700014C249.1 0.900014 251.2 4.00001 251.5 8.60001C252.2 18 253 27.5 253.7 36.9C253.9 36.9 254 36.9 254.2 36.9ZM248.8 66C247.3 47.1 245.9 31.2 244.7 15.3C244.1 6.80001 242.4 5.20001 234 6.30001C232.4 6.50001 230.8 7.30001 229.2 7.50001C223.9 8.10001 218.7 8.70001 213.4 9.00001C208.3 9.30001 203.2 9.30001 198.1 9.40001C192.6 9.50001 187.2 9.80001 181.7 9.80001C168.9 9.60001 156.1 8.80001 143.3 9.00001C122.2 9.40001 101.1 10.7 79.9 10.9C67.4 11 55 9.50001 42.5 9.40001C32.9 9.30001 23.3 10.1 13.6 10.4C10.8 10.5 10.4 12.1 10.5 14.4C10.9 22 11.8 29.7 11.5 37.3C10.7 54.2 8.80001 71.1 8.10001 88.1C7.70001 98.5 8.80001 109 9.40001 119.4C9.80001 125.7 10.9 131.9 10.8 138.2C10.7 143.1 8.90001 148 8.60001 152.9C7.60001 166.7 8.00001 180.4 9.30001 194.2C10.8 210.7 10.2 227.4 10.5 244C10.6 247.6 9.30001 252.5 11.2 254.6C12.9 256.5 17.9 255.7 21.5 255.8C32 256.3 42.6 258.1 52.9 257C82.8 253.8 112.4 256.4 142.2 257.6C150.8 258 159.5 257.9 168.2 257.5C179.8 256.9 191.4 255.1 203 257.8C205.4 258.4 208 257.7 210.5 257.9C217.4 258.4 224.3 259 231.2 259.5C233.7 259.7 236.2 260.1 238.6 260.1C242.4 260.2 244.5 258.5 244.6 254.5C244.7 250.7 245.1 246.9 245.3 243C246.4 224.1 247.7 205.2 248.6 186.2C249.4 169.6 246 153 248.9 136.4C249.6 132.6 248.6 128.5 248.3 124.5C248 120.9 247.2 117.2 247.3 113.6C247.6 96.7 248.3 79.9 248.8 66Z" fill="black"/>
<path d="M51.5 111C50.7 98.7 56.1 88.5 62.6 78.8C66.8 72.6 73.7 73.1 79.1 74.6C95.1 79 101.7 92 97.5 108.3C97.3 109.1 97 109.9 96.9 110.7C95.8 126 85.3 133.4 73 139.2C67.9 141.6 60.9 139.3 57.2 134.1C53.3 128.7 51.2 122.7 51.4 115.9C51.5 114.4 51.5 112.7 51.5 111ZM62.1 96.3C63.2 96.9 65 98.7 66.8 98.8C70.9 99.1 78.4 91.9 76.7 89.4C75 86.8 71.2 85 68 84.1C64.9 83.4 61.9 89.1 62.1 96.3ZM64.7 116C65.4 115.7 66 115.3 66.7 115C65.6 112.9 64.6 110.7 63.2 108.8C63 108.6 59.7 109.7 59.6 110.5C58.8 114.3 61.9 115.1 64.7 116Z" fill="black"/>
<path d="M200.5 112.9C200.4 122.6 195.7 128.7 189.6 133.5C177.4 142.9 161.4 136.6 158.1 121.4C155.5 109.6 156.2 98 159.8 86.5C161 82.5 162.2 78.3 168.3 80.4C170 81 172.4 79.3 174.5 79.1C184.1 78.5 194.4 86.8 197.7 98.1C199.2 103.3 199.8 108.8 200.5 112.9ZM178 91.9C174.9 95.3 176 101.2 179.8 102.5C180.7 102.8 182.3 102.4 182.8 101.8C183.4 101 183.6 99.2 183.1 98.4C181.6 96.1 179.8 94.1 178 91.9Z" fill="black"/>
<path d="M114.4 159C115.1 154.2 115.6 148.9 116.9 143.8C117.3 142.3 119.6 141.2 121.1 140C121.8 141.8 123.1 143.6 123.1 145.3C123.1 149.1 122.1 152.9 122 156.7C121.9 160.4 121 165.1 127.6 163.6C127.9 163.5 128.6 165.6 129.1 166.7C126.5 167.8 123.8 170.1 121.3 169.8C119.2 169.6 116.9 166.9 115.4 164.8C114.5 163.5 114.8 161.3 114.4 159Z" fill="black"/>
<path d="M41 73.5C40.3 73 38.9 71.9 37.5 70.8C38.5 69.5 39.4 67.4 40.6 67.1C46.7 66 50.8 62.8 53.3 57.2C54.2 55.3 55.4 53.3 56.9 51.9C57.7 51.1 59.7 51 60.8 51.5C61.6 51.9 62.3 53.7 62.2 54.8C61.4 62.2 51.3 72.2 43.8 73.2C43.3 73.3 42.8 73.3 41 73.5Z" fill="black"/>
<path d="M207.7 76.2C199.3 76.3 190 68 189.6 60.6C189.5 59.2 191.1 57.6 191.9 56.1C193.3 56.9 195.8 57.5 196.1 58.6C197.7 64.9 202.1 67.7 207.7 69.8C209 70.3 210.2 72.3 210.3 73.8C210.2 74.7 208.2 75.7 207.7 76.2Z" fill="black"/>
<path d="M117.1 204.7C115.2 206.7 113.9 208.8 112 210C110.8 210.8 108.5 211 107.3 210.4C106.5 210 106.1 206.8 106.8 206.1C109.9 203.1 113.1 199.6 116.9 198.1C121.1 196.4 123.7 200.8 125.7 203.9C126.7 205.4 125.9 208 125.9 210.1C124.2 209.5 122.5 209 121 208.2C119.7 207.4 118.7 206.2 117.1 204.7Z" fill="black"/>
<path d="M62.1 96.3C61.9 89 64.9 83.4 68.1 84.2C71.3 85 75.1 86.9 76.8 89.5C78.4 91.9 70.9 99.1 66.9 98.9C65 98.7 63.2 96.9 62.1 96.3Z" fill="white"/>
<path d="M64.7 116C61.9 115.1 58.8 114.3 59.6 110.4C59.8 109.6 63.1 108.5 63.2 108.7C64.6 110.6 65.6 112.8 66.7 114.9C66 115.3 65.4 115.7 64.7 116Z" fill="white"/>
<path d="M178 91.9C179.7 94 181.6 96.1 183.1 98.4C183.6 99.2 183.4 100.9 182.8 101.8C182.4 102.5 180.7 102.8 179.8 102.5C176 101.2 174.9 95.3 178 91.9Z" fill="white"/>
</g>
<defs>
<clipPath id="clip0_2_927">
<rect width="254.9" height="265.1" fill="white" transform="translate(0.5 0.5)"/>
</clipPath>
</defs>
</svg>
