<svg width="954" height="378" viewBox="0 0 954 378" fill="none" xmlns="http://www.w3.org/2000/svg">
<g filter="url(#filter0_d_0_203)">
<rect x="4" y="3" width="946" height="370" rx="5" fill="white"/>
</g>
<path d="M45.4746 39.3242H40.9043V52H39.0391V39.3242H34.4785V37.7812H45.4746V39.3242ZM45.8457 46.6191C45.8457 45.584 46.0475 44.653 46.4512 43.8262C46.8613 42.9993 47.4277 42.3613 48.1504 41.9121C48.8796 41.4629 49.7096 41.2383 50.6406 41.2383C52.0794 41.2383 53.2415 41.7363 54.127 42.7324C55.0189 43.7285 55.4648 45.0534 55.4648 46.707V46.834C55.4648 47.8626 55.2663 48.7871 54.8691 49.6074C54.4785 50.4212 53.9154 51.056 53.1797 51.5117C52.4505 51.9674 51.6107 52.1953 50.6602 52.1953C49.2279 52.1953 48.0658 51.6973 47.1738 50.7012C46.2884 49.7051 45.8457 48.3867 45.8457 46.7461V46.6191ZM47.6621 46.834C47.6621 48.0059 47.9323 48.9466 48.4727 49.6562C49.0195 50.3659 49.7487 50.7207 50.6602 50.7207C51.5781 50.7207 52.3073 50.3626 52.8477 49.6465C53.388 48.9238 53.6582 47.9147 53.6582 46.6191C53.6582 45.4603 53.3815 44.5228 52.8281 43.8066C52.2812 43.084 51.5521 42.7227 50.6406 42.7227C49.7487 42.7227 49.0293 43.0775 48.4824 43.7871C47.9355 44.4967 47.6621 45.5124 47.6621 46.834ZM60.1816 38.875V41.4336H62.1543V42.8301H60.1816V49.3828C60.1816 49.806 60.2695 50.125 60.4453 50.3398C60.6211 50.5482 60.9206 50.6523 61.3438 50.6523C61.5521 50.6523 61.8385 50.6133 62.2031 50.5352V52C61.7279 52.1302 61.2656 52.1953 60.8164 52.1953C60.0091 52.1953 59.4004 51.9512 58.9902 51.4629C58.5801 50.9746 58.375 50.2812 58.375 49.3828V42.8301H56.4512V41.4336H58.375V38.875H60.1816ZM70.7969 52C70.6927 51.7917 70.6081 51.4206 70.543 50.8867C69.7031 51.7591 68.7005 52.1953 67.5352 52.1953C66.4935 52.1953 65.6374 51.9023 64.9668 51.3164C64.3027 50.724 63.9707 49.9753 63.9707 49.0703C63.9707 47.9701 64.3874 47.1172 65.2207 46.5117C66.0605 45.8997 67.2389 45.5938 68.7559 45.5938H70.5137V44.7637C70.5137 44.1322 70.3249 43.6309 69.9473 43.2598C69.5697 42.8822 69.013 42.6934 68.2773 42.6934C67.6328 42.6934 67.0924 42.8561 66.6562 43.1816C66.2201 43.5072 66.002 43.901 66.002 44.3633H64.1855C64.1855 43.8359 64.3711 43.3281 64.7422 42.8398C65.1198 42.3451 65.6276 41.9544 66.2656 41.668C66.9102 41.3815 67.6165 41.2383 68.3848 41.2383C69.6022 41.2383 70.556 41.5443 71.2461 42.1562C71.9362 42.7617 72.2943 43.5983 72.3203 44.666V49.5293C72.3203 50.4993 72.444 51.2708 72.6914 51.8438V52H70.7969ZM67.7988 50.623C68.3652 50.623 68.9023 50.4766 69.4102 50.1836C69.918 49.8906 70.2858 49.5098 70.5137 49.041V46.873H69.0977C66.8841 46.873 65.7773 47.5208 65.7773 48.8164C65.7773 49.3828 65.9661 49.8255 66.3438 50.1445C66.7214 50.4635 67.2064 50.623 67.7988 50.623ZM77.1152 52H75.3086V37H77.1152V52ZM93.9023 46.834C93.9023 48.4421 93.5345 49.7376 92.7988 50.7207C92.0632 51.7038 91.0671 52.1953 89.8105 52.1953C88.528 52.1953 87.5189 51.7884 86.7832 50.9746V56.0625H84.9766V41.4336H86.627L86.7148 42.6055C87.4505 41.694 88.4727 41.2383 89.7812 41.2383C91.0508 41.2383 92.0534 41.7168 92.7891 42.6738C93.5312 43.6309 93.9023 44.9622 93.9023 46.668V46.834ZM92.0957 46.6289C92.0957 45.4375 91.8418 44.4967 91.334 43.8066C90.8262 43.1165 90.1296 42.7715 89.2441 42.7715C88.1504 42.7715 87.3301 43.2565 86.7832 44.2266V49.2754C87.3236 50.2389 88.1504 50.7207 89.2637 50.7207C90.1296 50.7207 90.8164 50.3789 91.3242 49.6953C91.8385 49.0052 92.0957 47.9831 92.0957 46.6289ZM95.7285 46.6191C95.7285 45.584 95.9303 44.653 96.334 43.8262C96.7441 42.9993 97.3105 42.3613 98.0332 41.9121C98.7624 41.4629 99.5924 41.2383 100.523 41.2383C101.962 41.2383 103.124 41.7363 104.01 42.7324C104.902 43.7285 105.348 45.0534 105.348 46.707V46.834C105.348 47.8626 105.149 48.7871 104.752 49.6074C104.361 50.4212 103.798 51.056 103.062 51.5117C102.333 51.9674 101.493 52.1953 100.543 52.1953C99.1107 52.1953 97.9486 51.6973 97.0566 50.7012C96.1712 49.7051 95.7285 48.3867 95.7285 46.7461V46.6191ZM97.5449 46.834C97.5449 48.0059 97.8151 48.9466 98.3555 49.6562C98.9023 50.3659 99.6315 50.7207 100.543 50.7207C101.461 50.7207 102.19 50.3626 102.73 49.6465C103.271 48.9238 103.541 47.9147 103.541 46.6191C103.541 45.4603 103.264 44.5228 102.711 43.8066C102.164 43.084 101.435 42.7227 100.523 42.7227C99.6315 42.7227 98.9121 43.0775 98.3652 43.7871C97.8184 44.4967 97.5449 45.5124 97.5449 46.834ZM109.576 52H107.77V41.4336H109.576V52ZM107.623 38.6309C107.623 38.3379 107.711 38.0905 107.887 37.8887C108.069 37.6868 108.336 37.5859 108.688 37.5859C109.039 37.5859 109.306 37.6868 109.488 37.8887C109.671 38.0905 109.762 38.3379 109.762 38.6309C109.762 38.9238 109.671 39.168 109.488 39.3633C109.306 39.5586 109.039 39.6562 108.688 39.6562C108.336 39.6562 108.069 39.5586 107.887 39.3633C107.711 39.168 107.623 38.9238 107.623 38.6309ZM114.186 41.4336L114.244 42.7617C115.051 41.7461 116.106 41.2383 117.408 41.2383C119.641 41.2383 120.768 42.498 120.787 45.0176V52H118.98V45.0078C118.974 44.2461 118.798 43.6829 118.453 43.3184C118.115 42.9538 117.584 42.7715 116.861 42.7715C116.275 42.7715 115.761 42.9277 115.318 43.2402C114.876 43.5527 114.531 43.9629 114.283 44.4707V52H112.477V41.4336H114.186ZM125.963 38.875V41.4336H127.936V42.8301H125.963V49.3828C125.963 49.806 126.051 50.125 126.227 50.3398C126.402 50.5482 126.702 50.6523 127.125 50.6523C127.333 50.6523 127.62 50.6133 127.984 50.5352V52C127.509 52.1302 127.047 52.1953 126.598 52.1953C125.79 52.1953 125.182 51.9512 124.771 51.4629C124.361 50.9746 124.156 50.2812 124.156 49.3828V42.8301H122.232V41.4336H124.156V38.875H125.963ZM136.207 49.1973C136.207 48.709 136.021 48.3314 135.65 48.0645C135.286 47.791 134.645 47.5566 133.727 47.3613C132.815 47.166 132.089 46.9316 131.549 46.6582C131.015 46.3848 130.618 46.0592 130.357 45.6816C130.104 45.304 129.977 44.8548 129.977 44.334C129.977 43.4681 130.341 42.7357 131.07 42.1367C131.806 41.5378 132.743 41.2383 133.883 41.2383C135.081 41.2383 136.051 41.5475 136.793 42.166C137.542 42.7845 137.916 43.5755 137.916 44.5391H136.1C136.1 44.0443 135.888 43.6178 135.465 43.2598C135.048 42.9017 134.521 42.7227 133.883 42.7227C133.225 42.7227 132.711 42.8659 132.34 43.1523C131.969 43.4388 131.783 43.8132 131.783 44.2754C131.783 44.7116 131.956 45.0404 132.301 45.2617C132.646 45.4831 133.268 45.6947 134.166 45.8965C135.071 46.0983 135.803 46.3392 136.363 46.6191C136.923 46.8991 137.337 47.2376 137.604 47.6348C137.877 48.0254 138.014 48.5039 138.014 49.0703C138.014 50.0143 137.636 50.7728 136.881 51.3457C136.126 51.9121 135.146 52.1953 133.941 52.1953C133.095 52.1953 132.346 52.0456 131.695 51.7461C131.044 51.4466 130.533 51.0299 130.162 50.4961C129.798 49.9557 129.615 49.373 129.615 48.748H131.422C131.454 49.3535 131.695 49.8353 132.145 50.1934C132.6 50.5449 133.199 50.7207 133.941 50.7207C134.625 50.7207 135.172 50.584 135.582 50.3105C135.999 50.0306 136.207 49.6595 136.207 49.1973Z" fill="#31394D"/>
<path fill-rule="evenodd" clip-rule="evenodd" d="M819.352 44.2512C819.773 44.2512 820.006 44.7388 819.741 45.0657L816.856 48.6305C816.656 48.8778 816.279 48.8778 816.079 48.6305L813.194 45.0658C812.93 44.7389 813.162 44.2513 813.583 44.2513L819.352 44.2512Z" fill="#B8C5D3"/>
<path d="M696.579 50V43.5811H695.41V42.6035H696.579V41.8447C696.579 41.0518 696.791 40.4388 697.215 40.0059C697.639 39.5729 698.238 39.3564 699.013 39.3564C699.304 39.3564 699.594 39.3952 699.881 39.4727L699.812 40.498C699.598 40.457 699.37 40.4365 699.129 40.4365C698.719 40.4365 698.402 40.5573 698.179 40.7988C697.955 41.0358 697.844 41.3776 697.844 41.8242V42.6035H699.423V43.5811H697.844V50H696.579ZM704.399 43.7383C704.208 43.7064 704.001 43.6904 703.777 43.6904C702.948 43.6904 702.385 44.0436 702.089 44.75V50H700.824V42.6035H702.055L702.075 43.458C702.49 42.7972 703.078 42.4668 703.839 42.4668C704.085 42.4668 704.272 42.4987 704.399 42.5625V43.7383ZM705.097 46.2334C705.097 45.5088 705.238 44.8571 705.521 44.2783C705.808 43.6995 706.204 43.2529 706.71 42.9385C707.22 42.624 707.801 42.4668 708.453 42.4668C709.46 42.4668 710.274 42.8154 710.894 43.5127C711.518 44.21 711.83 45.1374 711.83 46.2949V46.3838C711.83 47.1038 711.691 47.751 711.413 48.3252C711.14 48.8949 710.745 49.3392 710.23 49.6582C709.72 49.9772 709.132 50.1367 708.467 50.1367C707.464 50.1367 706.651 49.7881 706.026 49.0908C705.407 48.3936 705.097 47.4707 705.097 46.3223V46.2334ZM706.368 46.3838C706.368 47.2041 706.557 47.8626 706.936 48.3594C707.318 48.8561 707.829 49.1045 708.467 49.1045C709.109 49.1045 709.62 48.8538 709.998 48.3525C710.376 47.8467 710.565 47.1403 710.565 46.2334C710.565 45.4222 710.372 44.766 709.984 44.2646C709.602 43.7588 709.091 43.5059 708.453 43.5059C707.829 43.5059 707.325 43.7542 706.942 44.251C706.56 44.7477 706.368 45.4587 706.368 46.3838ZM714.605 42.6035L714.64 43.4238C715.182 42.7858 715.913 42.4668 716.834 42.4668C717.868 42.4668 718.573 42.8633 718.946 43.6562C719.192 43.3008 719.511 43.0137 719.903 42.7949C720.3 42.5762 720.767 42.4668 721.305 42.4668C722.927 42.4668 723.752 43.3258 723.779 45.0439V50H722.515V45.1191C722.515 44.5905 722.394 44.1963 722.152 43.9365C721.911 43.6722 721.505 43.54 720.936 43.54C720.466 43.54 720.076 43.6813 719.767 43.9639C719.457 44.2419 719.277 44.6178 719.227 45.0918V50H717.955V45.1533C717.955 44.0778 717.429 43.54 716.376 43.54C715.547 43.54 714.979 43.8932 714.674 44.5996V50H713.409V42.6035H714.605Z" fill="#748AA1"/>
<path d="M736.651 47.4023H732.481L731.545 50H730.191L733.992 40.0469H735.141L738.948 50H737.602L736.651 47.4023ZM732.878 46.3223H736.262L734.566 41.667L732.878 46.3223ZM744.574 49.2686C744.082 49.8473 743.36 50.1367 742.407 50.1367C741.619 50.1367 741.017 49.9089 740.603 49.4531C740.192 48.9928 739.985 48.3138 739.98 47.416V42.6035H741.245V47.3818C741.245 48.5029 741.701 49.0635 742.612 49.0635C743.578 49.0635 744.221 48.7035 744.54 47.9834V42.6035H745.805V50H744.602L744.574 49.2686ZM747.432 46.2402C747.432 45.0872 747.698 44.1712 748.231 43.4922C748.765 42.8086 749.471 42.4668 750.351 42.4668C751.253 42.4668 751.957 42.7858 752.463 43.4238L752.524 42.6035H753.68V49.8223C753.68 50.7793 753.395 51.5335 752.825 52.085C752.26 52.6364 751.499 52.9121 750.542 52.9121C750.009 52.9121 749.487 52.7982 748.977 52.5703C748.466 52.3424 748.076 52.0303 747.808 51.6338L748.464 50.875C749.006 51.5449 749.669 51.8799 750.453 51.8799C751.068 51.8799 751.547 51.7067 751.889 51.3604C752.235 51.014 752.408 50.5264 752.408 49.8975V49.2617C751.902 49.8451 751.212 50.1367 750.337 50.1367C749.471 50.1367 748.769 49.7881 748.231 49.0908C747.698 48.3936 747.432 47.4434 747.432 46.2402ZM748.703 46.3838C748.703 47.2178 748.874 47.874 749.216 48.3525C749.558 48.8265 750.036 49.0635 750.651 49.0635C751.449 49.0635 752.035 48.7012 752.408 47.9766V44.5996C752.021 43.8932 751.44 43.54 750.665 43.54C750.05 43.54 749.569 43.7793 749.223 44.2578C748.876 44.7363 748.703 45.445 748.703 46.3838ZM760.16 49.2686C759.668 49.8473 758.946 50.1367 757.993 50.1367C757.205 50.1367 756.603 49.9089 756.188 49.4531C755.778 48.9928 755.571 48.3138 755.566 47.416V42.6035H756.831V47.3818C756.831 48.5029 757.287 49.0635 758.198 49.0635C759.164 49.0635 759.807 48.7035 760.126 47.9834V42.6035H761.391V50H760.188L760.16 49.2686ZM767.625 48.0381C767.625 47.6963 767.495 47.432 767.235 47.2451C766.98 47.0537 766.531 46.8896 765.889 46.7529C765.251 46.6162 764.743 46.4521 764.364 46.2607C763.991 46.0693 763.713 45.8415 763.53 45.5771C763.353 45.3128 763.264 44.9984 763.264 44.6338C763.264 44.0277 763.519 43.515 764.029 43.0957C764.544 42.6764 765.201 42.4668 765.998 42.4668C766.837 42.4668 767.516 42.6833 768.035 43.1162C768.559 43.5492 768.821 44.1029 768.821 44.7773H767.55C767.55 44.431 767.402 44.1325 767.105 43.8818C766.814 43.6312 766.445 43.5059 765.998 43.5059C765.538 43.5059 765.178 43.6061 764.918 43.8066C764.658 44.0072 764.528 44.2692 764.528 44.5928C764.528 44.8981 764.649 45.1283 764.891 45.2832C765.132 45.4382 765.567 45.5863 766.196 45.7275C766.83 45.8688 767.342 46.0374 767.734 46.2334C768.126 46.4294 768.416 46.6663 768.603 46.9443C768.794 47.2178 768.89 47.5527 768.89 47.9492C768.89 48.61 768.625 49.141 768.097 49.542C767.568 49.9385 766.882 50.1367 766.039 50.1367C765.447 50.1367 764.923 50.0319 764.467 49.8223C764.011 49.6126 763.653 49.321 763.394 48.9473C763.138 48.569 763.011 48.1611 763.011 47.7236H764.275C764.298 48.1475 764.467 48.4847 764.781 48.7354C765.1 48.9814 765.52 49.1045 766.039 49.1045C766.518 49.1045 766.9 49.0088 767.188 48.8174C767.479 48.6214 767.625 48.3617 767.625 48.0381ZM772.253 40.8125V42.6035H773.634V43.5811H772.253V48.168C772.253 48.4642 772.314 48.6875 772.438 48.8379C772.561 48.9837 772.77 49.0566 773.066 49.0566C773.212 49.0566 773.413 49.0293 773.668 48.9746V50C773.335 50.0911 773.012 50.1367 772.697 50.1367C772.132 50.1367 771.706 49.9658 771.419 49.624C771.132 49.2822 770.988 48.7969 770.988 48.168V43.5811H769.642V42.6035H770.988V40.8125H772.253ZM784.981 50H778.46V49.0908L781.905 45.2627C782.416 44.6839 782.767 44.2145 782.958 43.8545C783.154 43.4899 783.252 43.1139 783.252 42.7266C783.252 42.207 783.095 41.7809 782.78 41.4482C782.466 41.1156 782.047 40.9492 781.522 40.9492C780.894 40.9492 780.404 41.1292 780.053 41.4893C779.706 41.8447 779.533 42.3415 779.533 42.9795H778.269C778.269 42.0635 778.562 41.3229 779.15 40.7578C779.743 40.1927 780.534 39.9102 781.522 39.9102C782.448 39.9102 783.179 40.154 783.717 40.6416C784.255 41.1247 784.523 41.7695 784.523 42.5762C784.523 43.556 783.899 44.7227 782.65 46.0762L779.984 48.9678H784.981V50ZM792.562 45.7549C792.562 47.236 792.31 48.3366 791.804 49.0566C791.298 49.7767 790.507 50.1367 789.432 50.1367C788.37 50.1367 787.584 49.7858 787.073 49.084C786.563 48.3776 786.299 47.3249 786.28 45.9258V44.2373C786.28 42.7744 786.533 41.6875 787.039 40.9766C787.545 40.2656 788.338 39.9102 789.418 39.9102C790.489 39.9102 791.277 40.2542 791.783 40.9424C792.289 41.626 792.549 42.6833 792.562 44.1143V45.7549ZM791.298 44.0254C791.298 42.9544 791.147 42.1751 790.847 41.6875C790.546 41.1953 790.07 40.9492 789.418 40.9492C788.771 40.9492 788.299 41.193 788.003 41.6807C787.707 42.1683 787.554 42.918 787.545 43.9297V45.9531C787.545 47.0286 787.7 47.8239 788.01 48.3389C788.324 48.8493 788.798 49.1045 789.432 49.1045C790.056 49.1045 790.519 48.863 790.819 48.3799C791.125 47.8968 791.284 47.1357 791.298 46.0967V44.0254ZM798.339 50H797.067V41.5713L794.518 42.5078V41.3594L798.141 39.999H798.339V50ZM808.08 42.6445C808.08 43.1413 807.948 43.5833 807.684 43.9707C807.424 44.3581 807.071 44.6611 806.624 44.8799C807.144 45.1032 807.554 45.429 807.854 45.8574C808.16 46.2858 808.312 46.7712 808.312 47.3135C808.312 48.1748 808.021 48.8607 807.438 49.3711C806.859 49.8815 806.095 50.1367 805.147 50.1367C804.19 50.1367 803.423 49.8815 802.844 49.3711C802.27 48.8561 801.982 48.1702 801.982 47.3135C801.982 46.7757 802.128 46.2904 802.42 45.8574C802.716 45.4245 803.124 45.0964 803.644 44.873C803.201 44.6543 802.853 44.3512 802.598 43.9639C802.342 43.5765 802.215 43.1367 802.215 42.6445C802.215 41.806 802.484 41.1406 803.021 40.6484C803.559 40.1562 804.268 39.9102 805.147 39.9102C806.022 39.9102 806.729 40.1562 807.267 40.6484C807.809 41.1406 808.08 41.806 808.08 42.6445ZM807.048 47.2861C807.048 46.7301 806.87 46.2767 806.515 45.9258C806.164 45.5749 805.703 45.3994 805.134 45.3994C804.564 45.3994 804.106 45.5726 803.76 45.9189C803.418 46.2653 803.247 46.721 803.247 47.2861C803.247 47.8512 803.413 48.2956 803.746 48.6191C804.083 48.9427 804.55 49.1045 805.147 49.1045C805.74 49.1045 806.205 48.9427 806.542 48.6191C806.879 48.291 807.048 47.8467 807.048 47.2861ZM805.147 40.9492C804.651 40.9492 804.247 41.1042 803.938 41.4141C803.632 41.7194 803.479 42.1364 803.479 42.665C803.479 43.1709 803.63 43.5811 803.931 43.8955C804.236 44.2054 804.642 44.3604 805.147 44.3604C805.653 44.3604 806.057 44.2054 806.357 43.8955C806.663 43.5811 806.815 43.1709 806.815 42.665C806.815 42.1592 806.658 41.7467 806.344 41.4277C806.029 41.1087 805.631 40.9492 805.147 40.9492Z" fill="#31394D"/>
<path fill-rule="evenodd" clip-rule="evenodd" d="M919.352 44.2512C919.773 44.2512 920.006 44.7388 919.741 45.0657L916.856 48.6305C916.656 48.8778 916.279 48.8778 916.079 48.6305L913.194 45.0658C912.93 44.7389 913.162 44.2513 913.583 44.2513L919.352 44.2512Z" fill="#B8C5D3"/>
<path d="M832.673 40.8125V42.6035H834.054V43.5811H832.673V48.168C832.673 48.4642 832.734 48.6875 832.857 48.8379C832.98 48.9837 833.19 49.0566 833.486 49.0566C833.632 49.0566 833.833 49.0293 834.088 48.9746V50C833.755 50.0911 833.432 50.1367 833.117 50.1367C832.552 50.1367 832.126 49.9658 831.839 49.624C831.552 49.2822 831.408 48.7969 831.408 48.168V43.5811H830.062V42.6035H831.408V40.8125H832.673ZM835.065 46.2334C835.065 45.5088 835.207 44.8571 835.489 44.2783C835.776 43.6995 836.173 43.2529 836.679 42.9385C837.189 42.624 837.77 42.4668 838.422 42.4668C839.429 42.4668 840.243 42.8154 840.862 43.5127C841.487 44.21 841.799 45.1374 841.799 46.2949V46.3838C841.799 47.1038 841.66 47.751 841.382 48.3252C841.108 48.8949 840.714 49.3392 840.199 49.6582C839.689 49.9772 839.101 50.1367 838.436 50.1367C837.433 50.1367 836.619 49.7881 835.995 49.0908C835.375 48.3936 835.065 47.4707 835.065 46.3223V46.2334ZM836.337 46.3838C836.337 47.2041 836.526 47.8626 836.904 48.3594C837.287 48.8561 837.798 49.1045 838.436 49.1045C839.078 49.1045 839.589 48.8538 839.967 48.3525C840.345 47.8467 840.534 47.1403 840.534 46.2334C840.534 45.4222 840.34 44.766 839.953 44.2646C839.57 43.7588 839.06 43.5059 838.422 43.5059C837.798 43.5059 837.294 43.7542 836.911 44.251C836.528 44.7477 836.337 45.4587 836.337 46.3838Z" fill="#748AA1"/>
<path d="M850.851 40.0469L854.104 48.168L857.358 40.0469H859.061V50H857.748V46.124L857.871 41.9404L854.604 50H853.599L850.338 41.9609L850.468 46.124V50H849.155V40.0469H850.851ZM865.746 50C865.673 49.8542 865.614 49.5944 865.568 49.2207C864.98 49.8314 864.279 50.1367 863.463 50.1367C862.734 50.1367 862.134 49.9316 861.665 49.5215C861.2 49.1068 860.968 48.5827 860.968 47.9492C860.968 47.179 861.259 46.582 861.843 46.1582C862.431 45.7298 863.256 45.5156 864.317 45.5156H865.548V44.9346C865.548 44.4925 865.416 44.1416 865.151 43.8818C864.887 43.6175 864.497 43.4854 863.982 43.4854C863.531 43.4854 863.153 43.5993 862.848 43.8271C862.542 44.055 862.39 44.3307 862.39 44.6543H861.118C861.118 44.2852 861.248 43.9297 861.508 43.5879C861.772 43.2415 862.128 42.9681 862.574 42.7676C863.025 42.5671 863.52 42.4668 864.058 42.4668C864.91 42.4668 865.577 42.681 866.061 43.1094C866.544 43.5332 866.794 44.1188 866.812 44.8662V48.2705C866.812 48.9495 866.899 49.4896 867.072 49.8906V50H865.746ZM863.647 49.0361C864.044 49.0361 864.42 48.9336 864.775 48.7285C865.131 48.5234 865.388 48.2568 865.548 47.9287V46.4111H864.557C863.007 46.4111 862.232 46.8646 862.232 47.7715C862.232 48.168 862.365 48.4779 862.629 48.7012C862.893 48.9245 863.233 49.0361 863.647 49.0361ZM871.105 48.1475L872.828 42.6035H874.182L871.208 51.1416C870.748 52.3721 870.016 52.9873 869.014 52.9873L868.774 52.9668L868.303 52.8779V51.8525L868.645 51.8799C869.073 51.8799 869.406 51.7933 869.643 51.6201C869.884 51.4469 870.082 51.1302 870.237 50.6699L870.518 49.918L867.879 42.6035H869.26L871.105 48.1475ZM885.181 50H878.659V49.0908L882.104 45.2627C882.615 44.6839 882.966 44.2145 883.157 43.8545C883.353 43.4899 883.451 43.1139 883.451 42.7266C883.451 42.207 883.294 41.7809 882.979 41.4482C882.665 41.1156 882.246 40.9492 881.722 40.9492C881.093 40.9492 880.603 41.1292 880.252 41.4893C879.906 41.8447 879.732 42.3415 879.732 42.9795H878.468C878.468 42.0635 878.762 41.3229 879.35 40.7578C879.942 40.1927 880.733 39.9102 881.722 39.9102C882.647 39.9102 883.378 40.154 883.916 40.6416C884.454 41.1247 884.723 41.7695 884.723 42.5762C884.723 43.556 884.098 44.7227 882.85 46.0762L880.184 48.9678H885.181V50ZM892.762 45.7549C892.762 47.236 892.509 48.3366 892.003 49.0566C891.497 49.7767 890.706 50.1367 889.631 50.1367C888.569 50.1367 887.783 49.7858 887.272 49.084C886.762 48.3776 886.498 47.3249 886.479 45.9258V44.2373C886.479 42.7744 886.732 41.6875 887.238 40.9766C887.744 40.2656 888.537 39.9102 889.617 39.9102C890.688 39.9102 891.477 40.2542 891.982 40.9424C892.488 41.626 892.748 42.6833 892.762 44.1143V45.7549ZM891.497 44.0254C891.497 42.9544 891.347 42.1751 891.046 41.6875C890.745 41.1953 890.269 40.9492 889.617 40.9492C888.97 40.9492 888.498 41.193 888.202 41.6807C887.906 42.1683 887.753 42.918 887.744 43.9297V45.9531C887.744 47.0286 887.899 47.8239 888.209 48.3389C888.523 48.8493 888.997 49.1045 889.631 49.1045C890.255 49.1045 890.718 48.863 891.019 48.3799C891.324 47.8968 891.483 47.1357 891.497 46.0967V44.0254ZM898.538 50H897.267V41.5713L894.717 42.5078V41.3594L898.34 39.999H898.538V50ZM907.09 45.625C906.826 45.9395 906.509 46.1924 906.14 46.3838C905.775 46.5752 905.374 46.6709 904.937 46.6709C904.362 46.6709 903.861 46.5296 903.433 46.2471C903.009 45.9645 902.681 45.568 902.448 45.0576C902.216 44.5426 902.1 43.9753 902.1 43.3555C902.1 42.6901 902.225 42.0908 902.476 41.5576C902.731 41.0244 903.091 40.6165 903.556 40.334C904.021 40.0514 904.563 39.9102 905.183 39.9102C906.167 39.9102 906.942 40.2793 907.507 41.0176C908.076 41.7513 908.361 42.7539 908.361 44.0254V44.3945C908.361 46.3314 907.979 47.7464 907.213 48.6396C906.447 49.5283 905.292 49.984 903.747 50.0068H903.501V48.9404H903.768C904.811 48.9222 905.613 48.651 906.174 48.127C906.734 47.5983 907.04 46.7643 907.09 45.625ZM905.142 45.625C905.565 45.625 905.955 45.4951 906.311 45.2354C906.671 44.9756 906.933 44.6543 907.097 44.2715V43.7656C907.097 42.9362 906.917 42.2617 906.557 41.7422C906.197 41.2227 905.741 40.9629 905.189 40.9629C904.633 40.9629 904.187 41.1771 903.85 41.6055C903.512 42.0293 903.344 42.5898 903.344 43.2871C903.344 43.9661 903.506 44.5267 903.829 44.9688C904.157 45.4062 904.595 45.625 905.142 45.625Z" fill="#31394D"/>
<path d="M57.874 334.402H53.7041L52.7676 337H51.4141L55.2148 327.047H56.3633L60.1709 337H58.8242L57.874 334.402ZM54.1006 333.322H57.4844L55.7891 328.667L54.1006 333.322ZM65.7969 336.269C65.3047 336.847 64.5824 337.137 63.6299 337.137C62.8415 337.137 62.2399 336.909 61.8252 336.453C61.415 335.993 61.2077 335.314 61.2031 334.416V329.604H62.4678V334.382C62.4678 335.503 62.9235 336.063 63.835 336.063C64.8011 336.063 65.4437 335.703 65.7627 334.983V329.604H67.0273V337H65.8242L65.7969 336.269ZM68.6543 333.24C68.6543 332.087 68.9209 331.171 69.4541 330.492C69.9873 329.809 70.6937 329.467 71.5732 329.467C72.4756 329.467 73.1797 329.786 73.6855 330.424L73.7471 329.604H74.9023V336.822C74.9023 337.779 74.6175 338.534 74.0479 339.085C73.4827 339.636 72.7217 339.912 71.7646 339.912C71.2314 339.912 70.7096 339.798 70.1992 339.57C69.6888 339.342 69.2992 339.03 69.0303 338.634L69.6865 337.875C70.2288 338.545 70.8919 338.88 71.6758 338.88C72.291 338.88 72.7695 338.707 73.1113 338.36C73.4577 338.014 73.6309 337.526 73.6309 336.897V336.262C73.125 336.845 72.4346 337.137 71.5596 337.137C70.6937 337.137 69.9919 336.788 69.4541 336.091C68.9209 335.394 68.6543 334.443 68.6543 333.24ZM69.9258 333.384C69.9258 334.218 70.0967 334.874 70.4385 335.353C70.7803 335.826 71.2588 336.063 71.874 336.063C72.6715 336.063 73.2572 335.701 73.6309 334.977V331.6C73.2435 330.893 72.6624 330.54 71.8877 330.54C71.2725 330.54 70.7917 330.779 70.4453 331.258C70.099 331.736 69.9258 332.445 69.9258 333.384ZM86.6807 337H80.1592V336.091L83.6045 332.263C84.1149 331.684 84.4658 331.215 84.6572 330.854C84.8532 330.49 84.9512 330.114 84.9512 329.727C84.9512 329.207 84.7939 328.781 84.4795 328.448C84.165 328.116 83.7458 327.949 83.2217 327.949C82.5928 327.949 82.1029 328.129 81.752 328.489C81.4056 328.845 81.2324 329.341 81.2324 329.979H79.9678C79.9678 329.063 80.2617 328.323 80.8496 327.758C81.4421 327.193 82.2327 326.91 83.2217 326.91C84.1468 326.91 84.8783 327.154 85.416 327.642C85.9538 328.125 86.2227 328.77 86.2227 329.576C86.2227 330.556 85.5983 331.723 84.3496 333.076L81.6836 335.968H86.6807V337ZM94.2617 332.755C94.2617 334.236 94.0088 335.337 93.5029 336.057C92.9971 336.777 92.2064 337.137 91.1309 337.137C90.069 337.137 89.2829 336.786 88.7725 336.084C88.262 335.378 87.9977 334.325 87.9795 332.926V331.237C87.9795 329.774 88.2324 328.688 88.7383 327.977C89.2441 327.266 90.0371 326.91 91.1172 326.91C92.1882 326.91 92.9766 327.254 93.4824 327.942C93.9883 328.626 94.248 329.683 94.2617 331.114V332.755ZM92.9971 331.025C92.9971 329.954 92.8467 329.175 92.5459 328.688C92.2451 328.195 91.7689 327.949 91.1172 327.949C90.4701 327.949 89.9984 328.193 89.7021 328.681C89.4059 329.168 89.2533 329.918 89.2441 330.93V332.953C89.2441 334.029 89.3991 334.824 89.709 335.339C90.0234 335.849 90.4974 336.104 91.1309 336.104C91.7552 336.104 92.2178 335.863 92.5186 335.38C92.8239 334.897 92.9834 334.136 92.9971 333.097V331.025ZM100.038 337H98.7666V328.571L96.2168 329.508V328.359L99.8398 326.999H100.038V337ZM109.779 329.645C109.779 330.141 109.647 330.583 109.383 330.971C109.123 331.358 108.77 331.661 108.323 331.88C108.843 332.103 109.253 332.429 109.554 332.857C109.859 333.286 110.012 333.771 110.012 334.313C110.012 335.175 109.72 335.861 109.137 336.371C108.558 336.882 107.795 337.137 106.847 337.137C105.89 337.137 105.122 336.882 104.543 336.371C103.969 335.856 103.682 335.17 103.682 334.313C103.682 333.776 103.827 333.29 104.119 332.857C104.415 332.424 104.823 332.096 105.343 331.873C104.901 331.654 104.552 331.351 104.297 330.964C104.042 330.576 103.914 330.137 103.914 329.645C103.914 328.806 104.183 328.141 104.721 327.648C105.258 327.156 105.967 326.91 106.847 326.91C107.722 326.91 108.428 327.156 108.966 327.648C109.508 328.141 109.779 328.806 109.779 329.645ZM108.747 334.286C108.747 333.73 108.569 333.277 108.214 332.926C107.863 332.575 107.403 332.399 106.833 332.399C106.263 332.399 105.805 332.573 105.459 332.919C105.117 333.265 104.946 333.721 104.946 334.286C104.946 334.851 105.113 335.296 105.445 335.619C105.783 335.943 106.25 336.104 106.847 336.104C107.439 336.104 107.904 335.943 108.241 335.619C108.578 335.291 108.747 334.847 108.747 334.286ZM106.847 327.949C106.35 327.949 105.947 328.104 105.637 328.414C105.331 328.719 105.179 329.136 105.179 329.665C105.179 330.171 105.329 330.581 105.63 330.896C105.935 331.205 106.341 331.36 106.847 331.36C107.353 331.36 107.756 331.205 108.057 330.896C108.362 330.581 108.515 330.171 108.515 329.665C108.515 329.159 108.357 328.747 108.043 328.428C107.729 328.109 107.33 327.949 106.847 327.949Z" fill="#748AA1"/>
<path d="M143.83 332.563C142.704 332.24 141.884 331.843 141.369 331.374C140.859 330.9 140.604 330.317 140.604 329.624C140.604 328.84 140.916 328.193 141.54 327.683C142.169 327.168 142.985 326.91 143.987 326.91C144.671 326.91 145.279 327.042 145.812 327.307C146.35 327.571 146.765 327.936 147.057 328.4C147.353 328.865 147.501 329.373 147.501 329.925H146.182C146.182 329.323 145.99 328.852 145.607 328.51C145.225 328.163 144.685 327.99 143.987 327.99C143.34 327.99 142.834 328.134 142.47 328.421C142.11 328.703 141.93 329.098 141.93 329.604C141.93 330.009 142.101 330.353 142.442 330.636C142.789 330.914 143.374 331.169 144.199 331.401C145.029 331.634 145.676 331.891 146.141 332.174C146.61 332.452 146.956 332.778 147.18 333.151C147.408 333.525 147.521 333.965 147.521 334.471C147.521 335.277 147.207 335.924 146.578 336.412C145.949 336.895 145.108 337.137 144.056 337.137C143.372 337.137 142.734 337.007 142.142 336.747C141.549 336.483 141.091 336.123 140.768 335.667C140.449 335.211 140.289 334.694 140.289 334.115H141.608C141.608 334.717 141.829 335.193 142.271 335.544C142.718 335.89 143.313 336.063 144.056 336.063C144.748 336.063 145.279 335.922 145.648 335.64C146.018 335.357 146.202 334.972 146.202 334.484C146.202 333.997 146.031 333.621 145.689 333.356C145.348 333.088 144.728 332.823 143.83 332.563ZM152.081 337.137C151.078 337.137 150.263 336.809 149.634 336.152C149.005 335.492 148.69 334.61 148.69 333.507V333.274C148.69 332.541 148.829 331.887 149.107 331.312C149.39 330.734 149.782 330.283 150.283 329.959C150.789 329.631 151.336 329.467 151.924 329.467C152.885 329.467 153.633 329.784 154.166 330.417C154.699 331.05 154.966 331.957 154.966 333.138V333.664H149.955C149.973 334.393 150.185 334.983 150.591 335.435C151.001 335.881 151.521 336.104 152.149 336.104C152.596 336.104 152.974 336.013 153.284 335.831C153.594 335.649 153.865 335.407 154.098 335.106L154.87 335.708C154.25 336.66 153.321 337.137 152.081 337.137ZM151.924 330.506C151.413 330.506 150.985 330.693 150.639 331.066C150.292 331.436 150.078 331.955 149.996 332.625H153.701V332.529C153.665 331.887 153.492 331.39 153.182 331.039C152.872 330.684 152.452 330.506 151.924 330.506ZM162.684 333.384C162.684 334.509 162.426 335.416 161.911 336.104C161.396 336.793 160.699 337.137 159.819 337.137C158.922 337.137 158.215 336.852 157.7 336.282V339.844H156.436V329.604H157.591L157.652 330.424C158.167 329.786 158.883 329.467 159.799 329.467C160.688 329.467 161.389 329.802 161.904 330.472C162.424 331.142 162.684 332.074 162.684 333.268V333.384ZM161.419 333.24C161.419 332.406 161.241 331.748 160.886 331.265C160.53 330.782 160.043 330.54 159.423 330.54C158.657 330.54 158.083 330.88 157.7 331.559V335.093C158.078 335.767 158.657 336.104 159.437 336.104C160.043 336.104 160.523 335.865 160.879 335.387C161.239 334.904 161.419 334.188 161.419 333.24ZM174.161 337H167.64V336.091L171.085 332.263C171.595 331.684 171.946 331.215 172.138 330.854C172.334 330.49 172.432 330.114 172.432 329.727C172.432 329.207 172.274 328.781 171.96 328.448C171.646 328.116 171.226 327.949 170.702 327.949C170.073 327.949 169.583 328.129 169.232 328.489C168.886 328.845 168.713 329.341 168.713 329.979H167.448C167.448 329.063 167.742 328.323 168.33 327.758C168.923 327.193 169.713 326.91 170.702 326.91C171.627 326.91 172.359 327.154 172.896 327.642C173.434 328.125 173.703 328.77 173.703 329.576C173.703 330.556 173.079 331.723 171.83 333.076L169.164 335.968H174.161V337ZM181.742 332.755C181.742 334.236 181.489 335.337 180.983 336.057C180.478 336.777 179.687 337.137 178.611 337.137C177.549 337.137 176.763 336.786 176.253 336.084C175.743 335.378 175.478 334.325 175.46 332.926V331.237C175.46 329.774 175.713 328.688 176.219 327.977C176.725 327.266 177.518 326.91 178.598 326.91C179.669 326.91 180.457 327.254 180.963 327.942C181.469 328.626 181.729 329.683 181.742 331.114V332.755ZM180.478 331.025C180.478 329.954 180.327 329.175 180.026 328.688C179.726 328.195 179.249 327.949 178.598 327.949C177.951 327.949 177.479 328.193 177.183 328.681C176.886 329.168 176.734 329.918 176.725 330.93V332.953C176.725 334.029 176.88 334.824 177.189 335.339C177.504 335.849 177.978 336.104 178.611 336.104C179.236 336.104 179.698 335.863 179.999 335.38C180.304 334.897 180.464 334.136 180.478 333.097V331.025ZM187.519 337H186.247V328.571L183.697 329.508V328.359L187.32 326.999H187.519V337ZM197.26 329.645C197.26 330.141 197.128 330.583 196.863 330.971C196.604 331.358 196.25 331.661 195.804 331.88C196.323 332.103 196.733 332.429 197.034 332.857C197.34 333.286 197.492 333.771 197.492 334.313C197.492 335.175 197.201 335.861 196.617 336.371C196.038 336.882 195.275 337.137 194.327 337.137C193.37 337.137 192.602 336.882 192.023 336.371C191.449 335.856 191.162 335.17 191.162 334.313C191.162 333.776 191.308 333.29 191.6 332.857C191.896 332.424 192.304 332.096 192.823 331.873C192.381 331.654 192.033 331.351 191.777 330.964C191.522 330.576 191.395 330.137 191.395 329.645C191.395 328.806 191.663 328.141 192.201 327.648C192.739 327.156 193.448 326.91 194.327 326.91C195.202 326.91 195.909 327.156 196.446 327.648C196.989 328.141 197.26 328.806 197.26 329.645ZM196.228 334.286C196.228 333.73 196.05 333.277 195.694 332.926C195.343 332.575 194.883 332.399 194.313 332.399C193.744 332.399 193.286 332.573 192.939 332.919C192.598 333.265 192.427 333.721 192.427 334.286C192.427 334.851 192.593 335.296 192.926 335.619C193.263 335.943 193.73 336.104 194.327 336.104C194.92 336.104 195.384 335.943 195.722 335.619C196.059 335.291 196.228 334.847 196.228 334.286ZM194.327 327.949C193.83 327.949 193.427 328.104 193.117 328.414C192.812 328.719 192.659 329.136 192.659 329.665C192.659 330.171 192.81 330.581 193.11 330.896C193.416 331.205 193.821 331.36 194.327 331.36C194.833 331.36 195.236 331.205 195.537 330.896C195.842 330.581 195.995 330.171 195.995 329.665C195.995 329.159 195.838 328.747 195.523 328.428C195.209 328.109 194.81 327.949 194.327 327.949Z" fill="#748AA1"/>
<path d="M237.586 332.345C237.586 333.32 237.422 334.172 237.094 334.901C236.766 335.626 236.301 336.18 235.699 336.562C235.098 336.945 234.396 337.137 233.594 337.137C232.81 337.137 232.115 336.945 231.509 336.562C230.903 336.175 230.431 335.626 230.094 334.915C229.761 334.2 229.59 333.372 229.581 332.434V331.716C229.581 330.759 229.747 329.913 230.08 329.18C230.413 328.446 230.882 327.885 231.488 327.498C232.099 327.106 232.796 326.91 233.58 326.91C234.378 326.91 235.079 327.104 235.686 327.491C236.296 327.874 236.766 328.432 237.094 329.166C237.422 329.895 237.586 330.745 237.586 331.716V332.345ZM236.28 331.702C236.28 330.522 236.043 329.617 235.569 328.988C235.095 328.355 234.432 328.038 233.58 328.038C232.751 328.038 232.097 328.355 231.618 328.988C231.144 329.617 230.9 330.492 230.887 331.613V332.345C230.887 333.489 231.126 334.389 231.604 335.045C232.088 335.697 232.751 336.022 233.594 336.022C234.441 336.022 235.098 335.715 235.562 335.1C236.027 334.48 236.267 333.593 236.28 332.44V331.702ZM242.323 336.104C242.774 336.104 243.169 335.968 243.506 335.694C243.843 335.421 244.03 335.079 244.066 334.669H245.263C245.24 335.093 245.094 335.496 244.825 335.879C244.556 336.262 244.196 336.567 243.745 336.795C243.299 337.023 242.825 337.137 242.323 337.137C241.316 337.137 240.514 336.802 239.917 336.132C239.325 335.457 239.028 334.537 239.028 333.37V333.158C239.028 332.438 239.16 331.798 239.425 331.237C239.689 330.677 240.067 330.242 240.56 329.932C241.056 329.622 241.642 329.467 242.316 329.467C243.146 329.467 243.834 329.715 244.381 330.212C244.932 330.709 245.226 331.354 245.263 332.146H244.066C244.03 331.668 243.848 331.276 243.52 330.971C243.196 330.661 242.795 330.506 242.316 330.506C241.674 330.506 241.175 330.738 240.819 331.203C240.468 331.663 240.293 332.331 240.293 333.206V333.445C240.293 334.298 240.468 334.954 240.819 335.414C241.17 335.874 241.672 336.104 242.323 336.104ZM248.4 327.812V329.604H249.781V330.581H248.4V335.168C248.4 335.464 248.462 335.688 248.585 335.838C248.708 335.984 248.918 336.057 249.214 336.057C249.36 336.057 249.56 336.029 249.815 335.975V337C249.483 337.091 249.159 337.137 248.845 337.137C248.28 337.137 247.854 336.966 247.566 336.624C247.279 336.282 247.136 335.797 247.136 335.168V330.581H245.789V329.604H247.136V327.812H248.4ZM261.129 337H254.607V336.091L258.053 332.263C258.563 331.684 258.914 331.215 259.105 330.854C259.301 330.49 259.399 330.114 259.399 329.727C259.399 329.207 259.242 328.781 258.928 328.448C258.613 328.116 258.194 327.949 257.67 327.949C257.041 327.949 256.551 328.129 256.2 328.489C255.854 328.845 255.681 329.341 255.681 329.979H254.416C254.416 329.063 254.71 328.323 255.298 327.758C255.89 327.193 256.681 326.91 257.67 326.91C258.595 326.91 259.326 327.154 259.864 327.642C260.402 328.125 260.671 328.77 260.671 329.576C260.671 330.556 260.047 331.723 258.798 333.076L256.132 335.968H261.129V337ZM268.71 332.755C268.71 334.236 268.457 335.337 267.951 336.057C267.445 336.777 266.655 337.137 265.579 337.137C264.517 337.137 263.731 336.786 263.221 336.084C262.71 335.378 262.446 334.325 262.428 332.926V331.237C262.428 329.774 262.681 328.688 263.187 327.977C263.692 327.266 264.485 326.91 265.565 326.91C266.636 326.91 267.425 327.254 267.931 327.942C268.437 328.626 268.696 329.683 268.71 331.114V332.755ZM267.445 331.025C267.445 329.954 267.295 329.175 266.994 328.688C266.693 328.195 266.217 327.949 265.565 327.949C264.918 327.949 264.447 328.193 264.15 328.681C263.854 329.168 263.701 329.918 263.692 330.93V332.953C263.692 334.029 263.847 334.824 264.157 335.339C264.472 335.849 264.946 336.104 265.579 336.104C266.203 336.104 266.666 335.863 266.967 335.38C267.272 334.897 267.432 334.136 267.445 333.097V331.025ZM274.486 337H273.215V328.571L270.665 329.508V328.359L274.288 326.999H274.486V337ZM284.228 329.645C284.228 330.141 284.095 330.583 283.831 330.971C283.571 331.358 283.218 331.661 282.771 331.88C283.291 332.103 283.701 332.429 284.002 332.857C284.307 333.286 284.46 333.771 284.46 334.313C284.46 335.175 284.168 335.861 283.585 336.371C283.006 336.882 282.243 337.137 281.295 337.137C280.338 337.137 279.57 336.882 278.991 336.371C278.417 335.856 278.13 335.17 278.13 334.313C278.13 333.776 278.276 333.29 278.567 332.857C278.864 332.424 279.271 332.096 279.791 331.873C279.349 331.654 279 331.351 278.745 330.964C278.49 330.576 278.362 330.137 278.362 329.645C278.362 328.806 278.631 328.141 279.169 327.648C279.707 327.156 280.415 326.91 281.295 326.91C282.17 326.91 282.876 327.156 283.414 327.648C283.956 328.141 284.228 328.806 284.228 329.645ZM283.195 334.286C283.195 333.73 283.018 333.277 282.662 332.926C282.311 332.575 281.851 332.399 281.281 332.399C280.712 332.399 280.254 332.573 279.907 332.919C279.565 333.265 279.395 333.721 279.395 334.286C279.395 334.851 279.561 335.296 279.894 335.619C280.231 335.943 280.698 336.104 281.295 336.104C281.887 336.104 282.352 335.943 282.689 335.619C283.027 335.291 283.195 334.847 283.195 334.286ZM281.295 327.949C280.798 327.949 280.395 328.104 280.085 328.414C279.78 328.719 279.627 329.136 279.627 329.665C279.627 330.171 279.777 330.581 280.078 330.896C280.383 331.205 280.789 331.36 281.295 331.36C281.801 331.36 282.204 331.205 282.505 330.896C282.81 330.581 282.963 330.171 282.963 329.665C282.963 329.159 282.806 328.747 282.491 328.428C282.177 328.109 281.778 327.949 281.295 327.949Z" fill="#748AA1"/>
<path d="M324.027 337H322.708L317.697 329.33V337H316.378V327.047H317.697L322.722 334.751V327.047H324.027V337ZM325.825 333.233C325.825 332.509 325.966 331.857 326.249 331.278C326.536 330.7 326.933 330.253 327.438 329.938C327.949 329.624 328.53 329.467 329.182 329.467C330.189 329.467 331.002 329.815 331.622 330.513C332.246 331.21 332.559 332.137 332.559 333.295V333.384C332.559 334.104 332.42 334.751 332.142 335.325C331.868 335.895 331.474 336.339 330.959 336.658C330.449 336.977 329.861 337.137 329.195 337.137C328.193 337.137 327.379 336.788 326.755 336.091C326.135 335.394 325.825 334.471 325.825 333.322V333.233ZM327.097 333.384C327.097 334.204 327.286 334.863 327.664 335.359C328.047 335.856 328.557 336.104 329.195 336.104C329.838 336.104 330.348 335.854 330.727 335.353C331.105 334.847 331.294 334.14 331.294 333.233C331.294 332.422 331.1 331.766 330.713 331.265C330.33 330.759 329.82 330.506 329.182 330.506C328.557 330.506 328.054 330.754 327.671 331.251C327.288 331.748 327.097 332.459 327.097 333.384ZM336.476 335.284L338.308 329.604H339.6L336.947 337H335.983L333.304 329.604H334.596L336.476 335.284ZM350.681 337H344.159V336.091L347.604 332.263C348.115 331.684 348.466 331.215 348.657 330.854C348.853 330.49 348.951 330.114 348.951 329.727C348.951 329.207 348.794 328.781 348.479 328.448C348.165 328.116 347.746 327.949 347.222 327.949C346.593 327.949 346.103 328.129 345.752 328.489C345.406 328.845 345.232 329.341 345.232 329.979H343.968C343.968 329.063 344.262 328.323 344.85 327.758C345.442 327.193 346.233 326.91 347.222 326.91C348.147 326.91 348.878 327.154 349.416 327.642C349.954 328.125 350.223 328.77 350.223 329.576C350.223 330.556 349.598 331.723 348.35 333.076L345.684 335.968H350.681V337ZM358.262 332.755C358.262 334.236 358.009 335.337 357.503 336.057C356.997 336.777 356.206 337.137 355.131 337.137C354.069 337.137 353.283 336.786 352.772 336.084C352.262 335.378 351.998 334.325 351.979 332.926V331.237C351.979 329.774 352.232 328.688 352.738 327.977C353.244 327.266 354.037 326.91 355.117 326.91C356.188 326.91 356.977 327.254 357.482 327.942C357.988 328.626 358.248 329.683 358.262 331.114V332.755ZM356.997 331.025C356.997 329.954 356.847 329.175 356.546 328.688C356.245 328.195 355.769 327.949 355.117 327.949C354.47 327.949 353.998 328.193 353.702 328.681C353.406 329.168 353.253 329.918 353.244 330.93V332.953C353.244 334.029 353.399 334.824 353.709 335.339C354.023 335.849 354.497 336.104 355.131 336.104C355.755 336.104 356.218 335.863 356.519 335.38C356.824 334.897 356.983 334.136 356.997 333.097V331.025ZM364.038 337H362.767V328.571L360.217 329.508V328.359L363.84 326.999H364.038V337ZM373.779 329.645C373.779 330.141 373.647 330.583 373.383 330.971C373.123 331.358 372.77 331.661 372.323 331.88C372.843 332.103 373.253 332.429 373.554 332.857C373.859 333.286 374.012 333.771 374.012 334.313C374.012 335.175 373.72 335.861 373.137 336.371C372.558 336.882 371.795 337.137 370.847 337.137C369.89 337.137 369.122 336.882 368.543 336.371C367.969 335.856 367.682 335.17 367.682 334.313C367.682 333.776 367.827 333.29 368.119 332.857C368.415 332.424 368.823 332.096 369.343 331.873C368.901 331.654 368.552 331.351 368.297 330.964C368.042 330.576 367.914 330.137 367.914 329.645C367.914 328.806 368.183 328.141 368.721 327.648C369.258 327.156 369.967 326.91 370.847 326.91C371.722 326.91 372.428 327.156 372.966 327.648C373.508 328.141 373.779 328.806 373.779 329.645ZM372.747 334.286C372.747 333.73 372.569 333.277 372.214 332.926C371.863 332.575 371.403 332.399 370.833 332.399C370.263 332.399 369.805 332.573 369.459 332.919C369.117 333.265 368.946 333.721 368.946 334.286C368.946 334.851 369.113 335.296 369.445 335.619C369.783 335.943 370.25 336.104 370.847 336.104C371.439 336.104 371.904 335.943 372.241 335.619C372.578 335.291 372.747 334.847 372.747 334.286ZM370.847 327.949C370.35 327.949 369.947 328.104 369.637 328.414C369.331 328.719 369.179 329.136 369.179 329.665C369.179 330.171 369.329 330.581 369.63 330.896C369.935 331.205 370.341 331.36 370.847 331.36C371.353 331.36 371.756 331.205 372.057 330.896C372.362 330.581 372.515 330.171 372.515 329.665C372.515 329.159 372.357 328.747 372.043 328.428C371.729 328.109 371.33 327.949 370.847 327.949Z" fill="#748AA1"/>
<path d="M404.727 337V327.047H407.536C408.402 327.047 409.168 327.238 409.833 327.621C410.498 328.004 411.011 328.549 411.371 329.255C411.736 329.961 411.92 330.772 411.925 331.688V332.324C411.925 333.263 411.743 334.086 411.378 334.792C411.018 335.498 410.501 336.041 409.826 336.419C409.156 336.797 408.375 336.991 407.481 337H404.727ZM406.039 328.127V335.927H407.42C408.432 335.927 409.218 335.612 409.778 334.983C410.343 334.354 410.626 333.459 410.626 332.297V331.716C410.626 330.586 410.359 329.708 409.826 329.084C409.298 328.455 408.546 328.136 407.57 328.127H406.039ZM416.785 337.137C415.783 337.137 414.967 336.809 414.338 336.152C413.709 335.492 413.395 334.61 413.395 333.507V333.274C413.395 332.541 413.534 331.887 413.812 331.312C414.094 330.734 414.486 330.283 414.987 329.959C415.493 329.631 416.04 329.467 416.628 329.467C417.59 329.467 418.337 329.784 418.87 330.417C419.403 331.05 419.67 331.957 419.67 333.138V333.664H414.659C414.677 334.393 414.889 334.983 415.295 335.435C415.705 335.881 416.225 336.104 416.854 336.104C417.3 336.104 417.678 336.013 417.988 335.831C418.298 335.649 418.569 335.407 418.802 335.106L419.574 335.708C418.954 336.66 418.025 337.137 416.785 337.137ZM416.628 330.506C416.118 330.506 415.689 330.693 415.343 331.066C414.996 331.436 414.782 331.955 414.7 332.625H418.405V332.529C418.369 331.887 418.196 331.39 417.886 331.039C417.576 330.684 417.157 330.506 416.628 330.506ZM424.106 336.104C424.558 336.104 424.952 335.968 425.289 335.694C425.626 335.421 425.813 335.079 425.85 334.669H427.046C427.023 335.093 426.877 335.496 426.608 335.879C426.34 336.262 425.979 336.567 425.528 336.795C425.082 337.023 424.608 337.137 424.106 337.137C423.099 337.137 422.297 336.802 421.7 336.132C421.108 335.457 420.812 334.537 420.812 333.37V333.158C420.812 332.438 420.944 331.798 421.208 331.237C421.472 330.677 421.851 330.242 422.343 329.932C422.84 329.622 423.425 329.467 424.1 329.467C424.929 329.467 425.617 329.715 426.164 330.212C426.715 330.709 427.009 331.354 427.046 332.146H425.85C425.813 331.668 425.631 331.276 425.303 330.971C424.979 330.661 424.578 330.506 424.1 330.506C423.457 330.506 422.958 330.738 422.603 331.203C422.252 331.663 422.076 332.331 422.076 333.206V333.445C422.076 334.298 422.252 334.954 422.603 335.414C422.953 335.874 423.455 336.104 424.106 336.104ZM438.332 337H431.811V336.091L435.256 332.263C435.766 331.684 436.117 331.215 436.309 330.854C436.505 330.49 436.603 330.114 436.603 329.727C436.603 329.207 436.445 328.781 436.131 328.448C435.816 328.116 435.397 327.949 434.873 327.949C434.244 327.949 433.754 328.129 433.403 328.489C433.057 328.845 432.884 329.341 432.884 329.979H431.619C431.619 329.063 431.913 328.323 432.501 327.758C433.093 327.193 433.884 326.91 434.873 326.91C435.798 326.91 436.53 327.154 437.067 327.642C437.605 328.125 437.874 328.77 437.874 329.576C437.874 330.556 437.25 331.723 436.001 333.076L433.335 335.968H438.332V337ZM445.913 332.755C445.913 334.236 445.66 335.337 445.154 336.057C444.648 336.777 443.858 337.137 442.782 337.137C441.72 337.137 440.934 336.786 440.424 336.084C439.913 335.378 439.649 334.325 439.631 332.926V331.237C439.631 329.774 439.884 328.688 440.39 327.977C440.896 327.266 441.688 326.91 442.769 326.91C443.84 326.91 444.628 327.254 445.134 327.942C445.64 328.626 445.899 329.683 445.913 331.114V332.755ZM444.648 331.025C444.648 329.954 444.498 329.175 444.197 328.688C443.896 328.195 443.42 327.949 442.769 327.949C442.121 327.949 441.65 328.193 441.354 328.681C441.057 329.168 440.905 329.918 440.896 330.93V332.953C440.896 334.029 441.05 334.824 441.36 335.339C441.675 335.849 442.149 336.104 442.782 336.104C443.407 336.104 443.869 335.863 444.17 335.38C444.475 334.897 444.635 334.136 444.648 333.097V331.025ZM451.689 337H450.418V328.571L447.868 329.508V328.359L451.491 326.999H451.689V337ZM461.431 329.645C461.431 330.141 461.299 330.583 461.034 330.971C460.774 331.358 460.421 331.661 459.975 331.88C460.494 332.103 460.904 332.429 461.205 332.857C461.51 333.286 461.663 333.771 461.663 334.313C461.663 335.175 461.371 335.861 460.788 336.371C460.209 336.882 459.446 337.137 458.498 337.137C457.541 337.137 456.773 336.882 456.194 336.371C455.62 335.856 455.333 335.17 455.333 334.313C455.333 333.776 455.479 333.29 455.771 332.857C456.067 332.424 456.475 332.096 456.994 331.873C456.552 331.654 456.203 331.351 455.948 330.964C455.693 330.576 455.565 330.137 455.565 329.645C455.565 328.806 455.834 328.141 456.372 327.648C456.91 327.156 457.618 326.91 458.498 326.91C459.373 326.91 460.079 327.156 460.617 327.648C461.16 328.141 461.431 328.806 461.431 329.645ZM460.398 334.286C460.398 333.73 460.221 333.277 459.865 332.926C459.514 332.575 459.054 332.399 458.484 332.399C457.915 332.399 457.457 332.573 457.11 332.919C456.769 333.265 456.598 333.721 456.598 334.286C456.598 334.851 456.764 335.296 457.097 335.619C457.434 335.943 457.901 336.104 458.498 336.104C459.09 336.104 459.555 335.943 459.893 335.619C460.23 335.291 460.398 334.847 460.398 334.286ZM458.498 327.949C458.001 327.949 457.598 328.104 457.288 328.414C456.983 328.719 456.83 329.136 456.83 329.665C456.83 330.171 456.98 330.581 457.281 330.896C457.587 331.205 457.992 331.36 458.498 331.36C459.004 331.36 459.407 331.205 459.708 330.896C460.013 330.581 460.166 330.171 460.166 329.665C460.166 329.159 460.009 328.747 459.694 328.428C459.38 328.109 458.981 327.949 458.498 327.949Z" fill="#748AA1"/>
<path d="M497.334 327.047H498.653V334.095C498.653 335.047 498.366 335.792 497.792 336.33C497.222 336.868 496.461 337.137 495.509 337.137C494.52 337.137 493.75 336.884 493.198 336.378C492.647 335.872 492.371 335.163 492.371 334.252H493.684C493.684 334.822 493.839 335.266 494.148 335.585C494.463 335.904 494.916 336.063 495.509 336.063C496.051 336.063 496.489 335.893 496.821 335.551C497.159 335.209 497.329 334.73 497.334 334.115V327.047ZM505.257 337C505.184 336.854 505.125 336.594 505.079 336.221C504.491 336.831 503.789 337.137 502.974 337.137C502.244 337.137 501.645 336.932 501.176 336.521C500.711 336.107 500.479 335.583 500.479 334.949C500.479 334.179 500.77 333.582 501.354 333.158C501.941 332.73 502.766 332.516 503.828 332.516H505.059V331.935C505.059 331.493 504.926 331.142 504.662 330.882C504.398 330.618 504.008 330.485 503.493 330.485C503.042 330.485 502.664 330.599 502.358 330.827C502.053 331.055 501.9 331.331 501.9 331.654H500.629C500.629 331.285 500.759 330.93 501.019 330.588C501.283 330.242 501.638 329.968 502.085 329.768C502.536 329.567 503.031 329.467 503.568 329.467C504.421 329.467 505.088 329.681 505.571 330.109C506.054 330.533 506.305 331.119 506.323 331.866V335.271C506.323 335.95 506.41 336.49 506.583 336.891V337H505.257ZM503.158 336.036C503.555 336.036 503.931 335.934 504.286 335.729C504.642 335.523 504.899 335.257 505.059 334.929V333.411H504.067C502.518 333.411 501.743 333.865 501.743 334.771C501.743 335.168 501.875 335.478 502.14 335.701C502.404 335.924 502.743 336.036 503.158 336.036ZM509.502 329.604L509.543 330.533C510.108 329.822 510.846 329.467 511.758 329.467C513.321 329.467 514.109 330.349 514.123 332.112V337H512.858V332.105C512.854 331.572 512.731 331.178 512.489 330.923C512.252 330.668 511.881 330.54 511.375 330.54C510.965 330.54 510.605 330.649 510.295 330.868C509.985 331.087 509.743 331.374 509.57 331.729V337H508.306V329.604H509.502ZM525.895 337H519.373V336.091L522.818 332.263C523.329 331.684 523.68 331.215 523.871 330.854C524.067 330.49 524.165 330.114 524.165 329.727C524.165 329.207 524.008 328.781 523.693 328.448C523.379 328.116 522.96 327.949 522.436 327.949C521.807 327.949 521.317 328.129 520.966 328.489C520.619 328.845 520.446 329.341 520.446 329.979H519.182C519.182 329.063 519.476 328.323 520.063 327.758C520.656 327.193 521.447 326.91 522.436 326.91C523.361 326.91 524.092 327.154 524.63 327.642C525.168 328.125 525.437 328.77 525.437 329.576C525.437 330.556 524.812 331.723 523.563 333.076L520.897 335.968H525.895V337ZM533.476 332.755C533.476 334.236 533.223 335.337 532.717 336.057C532.211 336.777 531.42 337.137 530.345 337.137C529.283 337.137 528.497 336.786 527.986 336.084C527.476 335.378 527.212 334.325 527.193 332.926V331.237C527.193 329.774 527.446 328.688 527.952 327.977C528.458 327.266 529.251 326.91 530.331 326.91C531.402 326.91 532.19 327.254 532.696 327.942C533.202 328.626 533.462 329.683 533.476 331.114V332.755ZM532.211 331.025C532.211 329.954 532.061 329.175 531.76 328.688C531.459 328.195 530.983 327.949 530.331 327.949C529.684 327.949 529.212 328.193 528.916 328.681C528.62 329.168 528.467 329.918 528.458 330.93V332.953C528.458 334.029 528.613 334.824 528.923 335.339C529.237 335.849 529.711 336.104 530.345 336.104C530.969 336.104 531.432 335.863 531.732 335.38C532.038 334.897 532.197 334.136 532.211 333.097V331.025ZM539.252 337H537.98V328.571L535.431 329.508V328.359L539.054 326.999H539.252V337ZM547.804 332.625C547.539 332.939 547.223 333.192 546.854 333.384C546.489 333.575 546.088 333.671 545.65 333.671C545.076 333.671 544.575 333.53 544.146 333.247C543.723 332.965 543.395 332.568 543.162 332.058C542.93 331.543 542.813 330.975 542.813 330.355C542.813 329.69 542.939 329.091 543.189 328.558C543.445 328.024 543.805 327.617 544.27 327.334C544.734 327.051 545.277 326.91 545.896 326.91C546.881 326.91 547.656 327.279 548.221 328.018C548.79 328.751 549.075 329.754 549.075 331.025V331.395C549.075 333.331 548.692 334.746 547.927 335.64C547.161 336.528 546.006 336.984 544.461 337.007H544.215V335.94H544.481C545.525 335.922 546.327 335.651 546.888 335.127C547.448 334.598 547.754 333.764 547.804 332.625ZM545.855 332.625C546.279 332.625 546.669 332.495 547.024 332.235C547.384 331.976 547.646 331.654 547.811 331.271V330.766C547.811 329.936 547.631 329.262 547.271 328.742C546.91 328.223 546.455 327.963 545.903 327.963C545.347 327.963 544.901 328.177 544.563 328.605C544.226 329.029 544.058 329.59 544.058 330.287C544.058 330.966 544.219 331.527 544.543 331.969C544.871 332.406 545.309 332.625 545.855 332.625Z" fill="#748AA1"/>
<path d="M586.749 332.604H582.572V337H581.26V327.047H587.426V328.127H582.572V331.531H586.749V332.604ZM591.719 337.137C590.716 337.137 589.9 336.809 589.271 336.152C588.643 335.492 588.328 334.61 588.328 333.507V333.274C588.328 332.541 588.467 331.887 588.745 331.312C589.028 330.734 589.42 330.283 589.921 329.959C590.427 329.631 590.974 329.467 591.562 329.467C592.523 329.467 593.271 329.784 593.804 330.417C594.337 331.05 594.604 331.957 594.604 333.138V333.664H589.593C589.611 334.393 589.823 334.983 590.229 335.435C590.639 335.881 591.158 336.104 591.787 336.104C592.234 336.104 592.612 336.013 592.922 335.831C593.232 335.649 593.503 335.407 593.735 335.106L594.508 335.708C593.888 336.66 592.958 337.137 591.719 337.137ZM591.562 330.506C591.051 330.506 590.623 330.693 590.276 331.066C589.93 331.436 589.716 331.955 589.634 332.625H593.339V332.529C593.302 331.887 593.129 331.39 592.819 331.039C592.509 330.684 592.09 330.506 591.562 330.506ZM602.335 333.384C602.335 334.514 602.075 335.423 601.556 336.111C601.036 336.795 600.339 337.137 599.464 337.137C598.53 337.137 597.807 336.806 597.297 336.146L597.235 337H596.073V326.5H597.338V330.417C597.848 329.784 598.552 329.467 599.45 329.467C600.348 329.467 601.052 329.806 601.562 330.485C602.077 331.164 602.335 332.094 602.335 333.274V333.384ZM601.07 333.24C601.07 332.379 600.904 331.714 600.571 331.244C600.239 330.775 599.76 330.54 599.136 330.54C598.302 330.54 597.702 330.927 597.338 331.702V334.901C597.725 335.676 598.329 336.063 599.149 336.063C599.756 336.063 600.227 335.829 600.564 335.359C600.902 334.89 601.07 334.184 601.07 333.24ZM613.799 337H607.277V336.091L610.723 332.263C611.233 331.684 611.584 331.215 611.775 330.854C611.971 330.49 612.069 330.114 612.069 329.727C612.069 329.207 611.912 328.781 611.598 328.448C611.283 328.116 610.864 327.949 610.34 327.949C609.711 327.949 609.221 328.129 608.87 328.489C608.524 328.845 608.351 329.341 608.351 329.979H607.086C607.086 329.063 607.38 328.323 607.968 327.758C608.56 327.193 609.351 326.91 610.34 326.91C611.265 326.91 611.996 327.154 612.534 327.642C613.072 328.125 613.341 328.77 613.341 329.576C613.341 330.556 612.716 331.723 611.468 333.076L608.802 335.968H613.799V337ZM621.38 332.755C621.38 334.236 621.127 335.337 620.621 336.057C620.115 336.777 619.325 337.137 618.249 337.137C617.187 337.137 616.401 336.786 615.891 336.084C615.38 335.378 615.116 334.325 615.098 332.926V331.237C615.098 329.774 615.351 328.688 615.856 327.977C616.362 327.266 617.155 326.91 618.235 326.91C619.306 326.91 620.095 327.254 620.601 327.942C621.106 328.626 621.366 329.683 621.38 331.114V332.755ZM620.115 331.025C620.115 329.954 619.965 329.175 619.664 328.688C619.363 328.195 618.887 327.949 618.235 327.949C617.588 327.949 617.117 328.193 616.82 328.681C616.524 329.168 616.371 329.918 616.362 330.93V332.953C616.362 334.029 616.517 334.824 616.827 335.339C617.142 335.849 617.616 336.104 618.249 336.104C618.873 336.104 619.336 335.863 619.637 335.38C619.942 334.897 620.102 334.136 620.115 333.097V331.025ZM627.156 337H625.885V328.571L623.335 329.508V328.359L626.958 326.999H627.156V337ZM635.708 332.625C635.444 332.939 635.127 333.192 634.758 333.384C634.393 333.575 633.992 333.671 633.555 333.671C632.98 333.671 632.479 333.53 632.051 333.247C631.627 332.965 631.299 332.568 631.066 332.058C630.834 331.543 630.718 330.975 630.718 330.355C630.718 329.69 630.843 329.091 631.094 328.558C631.349 328.024 631.709 327.617 632.174 327.334C632.639 327.051 633.181 326.91 633.801 326.91C634.785 326.91 635.56 327.279 636.125 328.018C636.695 328.751 636.979 329.754 636.979 331.025V331.395C636.979 333.331 636.597 334.746 635.831 335.64C635.065 336.528 633.91 336.984 632.365 337.007H632.119V335.94H632.386C633.429 335.922 634.231 335.651 634.792 335.127C635.353 334.598 635.658 333.764 635.708 332.625ZM633.76 332.625C634.184 332.625 634.573 332.495 634.929 332.235C635.289 331.976 635.551 331.654 635.715 331.271V330.766C635.715 329.936 635.535 329.262 635.175 328.742C634.815 328.223 634.359 327.963 633.808 327.963C633.252 327.963 632.805 328.177 632.468 328.605C632.131 329.029 631.962 329.59 631.962 330.287C631.962 330.966 632.124 331.527 632.447 331.969C632.775 332.406 633.213 332.625 633.76 332.625Z" fill="#748AA1"/>
<path d="M670.101 327.047L673.354 335.168L676.608 327.047H678.311V337H676.998V333.124L677.121 328.94L673.854 337H672.849L669.588 328.961L669.718 333.124V337H668.405V327.047H670.101ZM684.996 337C684.923 336.854 684.864 336.594 684.818 336.221C684.23 336.831 683.529 337.137 682.713 337.137C681.984 337.137 681.384 336.932 680.915 336.521C680.45 336.107 680.218 335.583 680.218 334.949C680.218 334.179 680.509 333.582 681.093 333.158C681.681 332.73 682.506 332.516 683.567 332.516H684.798V331.935C684.798 331.493 684.666 331.142 684.401 330.882C684.137 330.618 683.747 330.485 683.232 330.485C682.781 330.485 682.403 330.599 682.098 330.827C681.792 331.055 681.64 331.331 681.64 331.654H680.368C680.368 331.285 680.498 330.93 680.758 330.588C681.022 330.242 681.378 329.968 681.824 329.768C682.275 329.567 682.77 329.467 683.308 329.467C684.16 329.467 684.827 329.681 685.311 330.109C685.794 330.533 686.044 331.119 686.062 331.866V335.271C686.062 335.95 686.149 336.49 686.322 336.891V337H684.996ZM682.897 336.036C683.294 336.036 683.67 335.934 684.025 335.729C684.381 335.523 684.638 335.257 684.798 334.929V333.411H683.807C682.257 333.411 681.482 333.865 681.482 334.771C681.482 335.168 681.615 335.478 681.879 335.701C682.143 335.924 682.483 336.036 682.897 336.036ZM691.62 330.738C691.429 330.706 691.221 330.69 690.998 330.69C690.169 330.69 689.606 331.044 689.31 331.75V337H688.045V329.604H689.275L689.296 330.458C689.711 329.797 690.299 329.467 691.06 329.467C691.306 329.467 691.493 329.499 691.62 329.562V330.738ZM702.653 337H696.132V336.091L699.577 332.263C700.088 331.684 700.438 331.215 700.63 330.854C700.826 330.49 700.924 330.114 700.924 329.727C700.924 329.207 700.767 328.781 700.452 328.448C700.138 328.116 699.718 327.949 699.194 327.949C698.565 327.949 698.076 328.129 697.725 328.489C697.378 328.845 697.205 329.341 697.205 329.979H695.94C695.94 329.063 696.234 328.323 696.822 327.758C697.415 327.193 698.205 326.91 699.194 326.91C700.119 326.91 700.851 327.154 701.389 327.642C701.926 328.125 702.195 328.77 702.195 329.576C702.195 330.556 701.571 331.723 700.322 333.076L697.656 335.968H702.653V337ZM710.234 332.755C710.234 334.236 709.981 335.337 709.476 336.057C708.97 336.777 708.179 337.137 707.104 337.137C706.042 337.137 705.256 336.786 704.745 336.084C704.235 335.378 703.97 334.325 703.952 332.926V331.237C703.952 329.774 704.205 328.688 704.711 327.977C705.217 327.266 706.01 326.91 707.09 326.91C708.161 326.91 708.949 327.254 709.455 327.942C709.961 328.626 710.221 329.683 710.234 331.114V332.755ZM708.97 331.025C708.97 329.954 708.819 329.175 708.519 328.688C708.218 328.195 707.742 327.949 707.09 327.949C706.443 327.949 705.971 328.193 705.675 328.681C705.379 329.168 705.226 329.918 705.217 330.93V332.953C705.217 334.029 705.372 334.824 705.682 335.339C705.996 335.849 706.47 336.104 707.104 336.104C707.728 336.104 708.19 335.863 708.491 335.38C708.797 334.897 708.956 334.136 708.97 333.097V331.025ZM716.011 337H714.739V328.571L712.189 329.508V328.359L715.812 326.999H716.011V337ZM724.562 332.625C724.298 332.939 723.981 333.192 723.612 333.384C723.248 333.575 722.847 333.671 722.409 333.671C721.835 333.671 721.334 333.53 720.905 333.247C720.481 332.965 720.153 332.568 719.921 332.058C719.688 331.543 719.572 330.975 719.572 330.355C719.572 329.69 719.698 329.091 719.948 328.558C720.203 328.024 720.563 327.617 721.028 327.334C721.493 327.051 722.035 326.91 722.655 326.91C723.64 326.91 724.414 327.279 724.979 328.018C725.549 328.751 725.834 329.754 725.834 331.025V331.395C725.834 333.331 725.451 334.746 724.686 335.64C723.92 336.528 722.765 336.984 721.22 337.007H720.974V335.94H721.24C722.284 335.922 723.086 335.651 723.646 335.127C724.207 334.598 724.512 333.764 724.562 332.625ZM722.614 332.625C723.038 332.625 723.428 332.495 723.783 332.235C724.143 331.976 724.405 331.654 724.569 331.271V330.766C724.569 329.936 724.389 329.262 724.029 328.742C723.669 328.223 723.214 327.963 722.662 327.963C722.106 327.963 721.66 328.177 721.322 328.605C720.985 329.029 720.816 329.59 720.816 330.287C720.816 330.966 720.978 331.527 721.302 331.969C721.63 332.406 722.067 332.625 722.614 332.625Z" fill="#748AA1"/>
<path d="M763.323 334.402H759.153L758.217 337H756.863L760.664 327.047H761.812L765.62 337H764.273L763.323 334.402ZM759.55 333.322H762.934L761.238 328.667L759.55 333.322ZM773.01 333.384C773.01 334.509 772.752 335.416 772.237 336.104C771.722 336.793 771.025 337.137 770.146 337.137C769.248 337.137 768.541 336.852 768.026 336.282V339.844H766.762V329.604H767.917L767.979 330.424C768.493 329.786 769.209 329.467 770.125 329.467C771.014 329.467 771.715 329.802 772.23 330.472C772.75 331.142 773.01 332.074 773.01 333.268V333.384ZM771.745 333.24C771.745 332.406 771.567 331.748 771.212 331.265C770.856 330.782 770.369 330.54 769.749 330.54C768.983 330.54 768.409 330.88 768.026 331.559V335.093C768.405 335.767 768.983 336.104 769.763 336.104C770.369 336.104 770.85 335.865 771.205 335.387C771.565 334.904 771.745 334.188 771.745 333.24ZM778.198 330.738C778.007 330.706 777.799 330.69 777.576 330.69C776.747 330.69 776.184 331.044 775.888 331.75V337H774.623V329.604H775.854L775.874 330.458C776.289 329.797 776.877 329.467 777.638 329.467C777.884 329.467 778.071 329.499 778.198 329.562V330.738ZM789.231 337H782.71V336.091L786.155 332.263C786.666 331.684 787.017 331.215 787.208 330.854C787.404 330.49 787.502 330.114 787.502 329.727C787.502 329.207 787.345 328.781 787.03 328.448C786.716 328.116 786.297 327.949 785.772 327.949C785.144 327.949 784.654 328.129 784.303 328.489C783.956 328.845 783.783 329.341 783.783 329.979H782.519C782.519 329.063 782.812 328.323 783.4 327.758C783.993 327.193 784.784 326.91 785.772 326.91C786.698 326.91 787.429 327.154 787.967 327.642C788.505 328.125 788.773 328.77 788.773 329.576C788.773 330.556 788.149 331.723 786.9 333.076L784.234 335.968H789.231V337ZM796.812 332.755C796.812 334.236 796.56 335.337 796.054 336.057C795.548 336.777 794.757 337.137 793.682 337.137C792.62 337.137 791.834 336.786 791.323 336.084C790.813 335.378 790.549 334.325 790.53 332.926V331.237C790.53 329.774 790.783 328.688 791.289 327.977C791.795 327.266 792.588 326.91 793.668 326.91C794.739 326.91 795.527 327.254 796.033 327.942C796.539 328.626 796.799 329.683 796.812 331.114V332.755ZM795.548 331.025C795.548 329.954 795.397 329.175 795.097 328.688C794.796 328.195 794.32 327.949 793.668 327.949C793.021 327.949 792.549 328.193 792.253 328.681C791.957 329.168 791.804 329.918 791.795 330.93V332.953C791.795 334.029 791.95 334.824 792.26 335.339C792.574 335.849 793.048 336.104 793.682 336.104C794.306 336.104 794.769 335.863 795.069 335.38C795.375 334.897 795.534 334.136 795.548 333.097V331.025ZM802.589 337H801.317V328.571L798.768 329.508V328.359L802.391 326.999H802.589V337ZM811.141 332.625C810.876 332.939 810.56 333.192 810.19 333.384C809.826 333.575 809.425 333.671 808.987 333.671C808.413 333.671 807.912 333.53 807.483 333.247C807.06 332.965 806.731 332.568 806.499 332.058C806.267 331.543 806.15 330.975 806.15 330.355C806.15 329.69 806.276 329.091 806.526 328.558C806.782 328.024 807.142 327.617 807.606 327.334C808.071 327.051 808.614 326.91 809.233 326.91C810.218 326.91 810.993 327.279 811.558 328.018C812.127 328.751 812.412 329.754 812.412 331.025V331.395C812.412 333.331 812.029 334.746 811.264 335.64C810.498 336.528 809.343 336.984 807.798 337.007H807.552V335.94H807.818C808.862 335.922 809.664 335.651 810.225 335.127C810.785 334.598 811.09 333.764 811.141 332.625ZM809.192 332.625C809.616 332.625 810.006 332.495 810.361 332.235C810.721 331.976 810.983 331.654 811.147 331.271V330.766C811.147 329.936 810.967 329.262 810.607 328.742C810.247 328.223 809.792 327.963 809.24 327.963C808.684 327.963 808.238 328.177 807.9 328.605C807.563 329.029 807.395 329.59 807.395 330.287C807.395 330.966 807.556 331.527 807.88 331.969C808.208 332.406 808.646 332.625 809.192 332.625Z" fill="#748AA1"/>
<path d="M845.212 327.047L848.466 335.168L851.72 327.047H853.422V337H852.109V333.124L852.232 328.94L848.965 337H847.96L844.699 328.961L844.829 333.124V337H843.517V327.047H845.212ZM860.107 337C860.035 336.854 859.975 336.594 859.93 336.221C859.342 336.831 858.64 337.137 857.824 337.137C857.095 337.137 856.496 336.932 856.026 336.521C855.562 336.107 855.329 335.583 855.329 334.949C855.329 334.179 855.621 333.582 856.204 333.158C856.792 332.73 857.617 332.516 858.679 332.516H859.909V331.935C859.909 331.493 859.777 331.142 859.513 330.882C859.248 330.618 858.859 330.485 858.344 330.485C857.893 330.485 857.514 330.599 857.209 330.827C856.904 331.055 856.751 331.331 856.751 331.654H855.479C855.479 331.285 855.609 330.93 855.869 330.588C856.133 330.242 856.489 329.968 856.936 329.768C857.387 329.567 857.881 329.467 858.419 329.467C859.271 329.467 859.939 329.681 860.422 330.109C860.905 330.533 861.156 331.119 861.174 331.866V335.271C861.174 335.95 861.26 336.49 861.434 336.891V337H860.107ZM858.009 336.036C858.405 336.036 858.781 335.934 859.137 335.729C859.492 335.523 859.75 335.257 859.909 334.929V333.411H858.918C857.368 333.411 856.594 333.865 856.594 334.771C856.594 335.168 856.726 335.478 856.99 335.701C857.255 335.924 857.594 336.036 858.009 336.036ZM865.467 335.147L867.189 329.604H868.543L865.569 338.142C865.109 339.372 864.378 339.987 863.375 339.987L863.136 339.967L862.664 339.878V338.853L863.006 338.88C863.434 338.88 863.767 338.793 864.004 338.62C864.245 338.447 864.444 338.13 864.599 337.67L864.879 336.918L862.24 329.604H863.621L865.467 335.147ZM879.542 337H873.021V336.091L876.466 332.263C876.976 331.684 877.327 331.215 877.519 330.854C877.715 330.49 877.812 330.114 877.812 329.727C877.812 329.207 877.655 328.781 877.341 328.448C877.026 328.116 876.607 327.949 876.083 327.949C875.454 327.949 874.964 328.129 874.613 328.489C874.267 328.845 874.094 329.341 874.094 329.979H872.829C872.829 329.063 873.123 328.323 873.711 327.758C874.303 327.193 875.094 326.91 876.083 326.91C877.008 326.91 877.74 327.154 878.277 327.642C878.815 328.125 879.084 328.77 879.084 329.576C879.084 330.556 878.46 331.723 877.211 333.076L874.545 335.968H879.542V337ZM887.123 332.755C887.123 334.236 886.87 335.337 886.364 336.057C885.858 336.777 885.068 337.137 883.992 337.137C882.93 337.137 882.144 336.786 881.634 336.084C881.123 335.378 880.859 334.325 880.841 332.926V331.237C880.841 329.774 881.094 328.688 881.6 327.977C882.105 327.266 882.898 326.91 883.979 326.91C885.049 326.91 885.838 327.254 886.344 327.942C886.85 328.626 887.109 329.683 887.123 331.114V332.755ZM885.858 331.025C885.858 329.954 885.708 329.175 885.407 328.688C885.106 328.195 884.63 327.949 883.979 327.949C883.331 327.949 882.86 328.193 882.563 328.681C882.267 329.168 882.115 329.918 882.105 330.93V332.953C882.105 334.029 882.26 334.824 882.57 335.339C882.885 335.849 883.359 336.104 883.992 336.104C884.617 336.104 885.079 335.863 885.38 335.38C885.685 334.897 885.845 334.136 885.858 333.097V331.025ZM892.899 337H891.628V328.571L889.078 329.508V328.359L892.701 326.999H892.899V337ZM901.451 332.625C901.187 332.939 900.87 333.192 900.501 333.384C900.136 333.575 899.735 333.671 899.298 333.671C898.724 333.671 898.222 333.53 897.794 333.247C897.37 332.965 897.042 332.568 896.81 332.058C896.577 331.543 896.461 330.975 896.461 330.355C896.461 329.69 896.586 329.091 896.837 328.558C897.092 328.024 897.452 327.617 897.917 327.334C898.382 327.051 898.924 326.91 899.544 326.91C900.528 326.91 901.303 327.279 901.868 328.018C902.438 328.751 902.723 329.754 902.723 331.025V331.395C902.723 333.331 902.34 334.746 901.574 335.64C900.809 336.528 899.653 336.984 898.108 337.007H897.862V335.94H898.129C899.173 335.922 899.975 335.651 900.535 335.127C901.096 334.598 901.401 333.764 901.451 332.625ZM899.503 332.625C899.927 332.625 900.316 332.495 900.672 332.235C901.032 331.976 901.294 331.654 901.458 331.271V330.766C901.458 329.936 901.278 329.262 900.918 328.742C900.558 328.223 900.102 327.963 899.551 327.963C898.995 327.963 898.548 328.177 898.211 328.605C897.874 329.029 897.705 329.59 897.705 330.287C897.705 330.966 897.867 331.527 898.19 331.969C898.519 332.406 898.956 332.625 899.503 332.625Z" fill="#748AA1"/>
<rect x="4" y="89" width="946" height="1" fill="#EBEDF4"/>
<rect x="4" y="140" width="946" height="1" fill="#EBEDF4"/>
<rect x="4" y="191" width="946" height="1" fill="#EBEDF4"/>
<rect x="4" y="242" width="946" height="1" fill="#EBEDF4"/>
<rect x="4" y="293" width="946" height="1" fill="#EBEDF4"/>
<g filter="url(#filter1_d_0_203)">
<path fill-rule="evenodd" clip-rule="evenodd" d="M486 94C483.239 94 481 96.2386 481 99V129C481 131.761 483.239 134 486 134H517.705L520.392 137.32C520.592 137.567 520.969 137.567 521.169 137.32L523.855 134H556C558.761 134 561 131.761 561 129V99C561 96.2386 558.761 94 556 94H486Z" fill="white"/>
</g>
<path d="M512.921 119H506.099V117.646L509.318 114.215C509.76 113.732 510.086 113.31 510.296 112.95C510.51 112.59 510.617 112.248 510.617 111.925C510.617 111.483 510.506 111.136 510.282 110.886C510.059 110.631 509.74 110.503 509.325 110.503C508.879 110.503 508.525 110.658 508.266 110.968C508.01 111.273 507.883 111.676 507.883 112.178H505.9C505.9 111.572 506.044 111.018 506.331 110.517C506.623 110.015 507.033 109.623 507.562 109.341C508.09 109.054 508.689 108.91 509.359 108.91C510.385 108.91 511.18 109.156 511.745 109.648C512.315 110.141 512.6 110.836 512.6 111.733C512.6 112.226 512.472 112.727 512.217 113.237C511.962 113.748 511.524 114.342 510.904 115.021L508.642 117.407H512.921V119ZM516.147 113.148H517.2C517.701 113.148 518.073 113.023 518.314 112.772C518.556 112.522 518.677 112.189 518.677 111.774C518.677 111.373 518.556 111.061 518.314 110.838C518.077 110.615 517.749 110.503 517.33 110.503C516.952 110.503 516.635 110.608 516.38 110.817C516.125 111.022 515.997 111.291 515.997 111.624H514.021C514.021 111.104 514.16 110.64 514.438 110.229C514.721 109.815 515.113 109.491 515.614 109.259C516.12 109.026 516.676 108.91 517.282 108.91C518.335 108.91 519.16 109.163 519.757 109.669C520.354 110.17 520.652 110.863 520.652 111.747C520.652 112.203 520.513 112.622 520.235 113.005C519.957 113.388 519.593 113.682 519.142 113.887C519.702 114.087 520.119 114.388 520.393 114.789C520.671 115.19 520.81 115.664 520.81 116.211C520.81 117.095 520.486 117.804 519.839 118.337C519.196 118.87 518.344 119.137 517.282 119.137C516.289 119.137 515.475 118.875 514.842 118.351C514.213 117.826 513.898 117.134 513.898 116.272H515.874C515.874 116.646 516.013 116.951 516.291 117.188C516.574 117.425 516.92 117.544 517.33 117.544C517.799 117.544 518.166 117.421 518.431 117.175C518.7 116.924 518.834 116.594 518.834 116.184C518.834 115.19 518.287 114.693 517.193 114.693H516.147V113.148ZM528.021 115.254H529.149V116.847H528.021V119H526.046V116.847H521.965L521.876 115.603L526.025 109.047H528.021V115.254ZM523.845 115.254H526.046V111.74L525.916 111.966L523.845 115.254ZM530.51 114.105L531.084 109.047H536.662V110.694H532.704L532.458 112.834C532.927 112.583 533.426 112.458 533.955 112.458C534.903 112.458 535.646 112.752 536.184 113.34C536.721 113.928 536.99 114.75 536.99 115.808C536.99 116.45 536.854 117.027 536.58 117.537C536.311 118.043 535.924 118.437 535.418 118.72C534.912 118.998 534.315 119.137 533.627 119.137C533.025 119.137 532.467 119.016 531.952 118.774C531.437 118.528 531.029 118.184 530.729 117.742C530.432 117.3 530.275 116.797 530.257 116.231H532.212C532.253 116.646 532.396 116.97 532.643 117.202C532.893 117.43 533.219 117.544 533.62 117.544C534.067 117.544 534.411 117.384 534.652 117.065C534.894 116.742 535.015 116.286 535.015 115.698C535.015 115.133 534.876 114.7 534.598 114.399C534.32 114.099 533.925 113.948 533.415 113.948C532.946 113.948 532.565 114.071 532.273 114.317L532.082 114.495L530.51 114.105Z" fill="#31394D"/>
<path d="M80 215C80 215 139.243 232.294 173.74 231.191C208.238 230.089 234.658 209.19 261.841 209.19C289.024 209.19 311.358 231.191 349.442 231.191C387.526 231.191 409.599 178.18 434.131 178.18C458.664 178.18 505.338 209.19 528.489 209.19C551.64 209.19 591.982 171.557 615.14 171.557C638.299 171.557 643.477 178.18 701.561 178.18C759.645 178.18 745.91 163.129 785.801 163.129C825.691 163.129 841.566 186.395 875.383 215" stroke="#E5E9F2" stroke-width="2" stroke-linecap="round" stroke-linejoin="round"/>
<g filter="url(#filter2_d_0_203)">
<path d="M80 255C80 255 139.243 212.66 173.74 211.557C208.238 210.455 234.658 249.19 261.841 249.19C289.024 249.19 311.358 166.456 349.442 166.456C387.526 166.456 409.599 199.764 434.131 199.764C458.664 199.764 480.239 166.456 521.475 166.456C562.71 166.456 591.982 211.557 615.14 211.557C638.299 211.557 643.477 170.793 701.561 170.793C759.645 170.793 745.91 135 785.801 135C825.691 135 785.801 185.742 875 198.529" stroke="#4072EE" stroke-width="2" stroke-linecap="round" stroke-linejoin="round"/>
</g>
<rect x="513" y="158" width="16" height="16" rx="8" fill="white" stroke="#4072EE" stroke-width="4"/>
<rect opacity="0.1" x="501.5" y="146.5" width="39" height="39" rx="19.5" fill="url(#paint0_radial_0_203)" stroke="#4072EE"/>
<defs>
<filter id="filter0_d_0_203" x="0" y="0" width="954" height="378" filterUnits="userSpaceOnUse" color-interpolation-filters="sRGB">
<feFlood flood-opacity="0" result="BackgroundImageFix"/>
<feColorMatrix in="SourceAlpha" type="matrix" values="0 0 0 0 0 0 0 0 0 0 0 0 0 0 0 0 0 0 127 0" result="hardAlpha"/>
<feOffset dy="1"/>
<feGaussianBlur stdDeviation="2"/>
<feColorMatrix type="matrix" values="0 0 0 0 0.898039 0 0 0 0 0.913725 0 0 0 0 0.94902 0 0 0 1 0"/>
<feBlend mode="normal" in2="BackgroundImageFix" result="effect1_dropShadow_0_203"/>
<feBlend mode="normal" in="SourceGraphic" in2="effect1_dropShadow_0_203" result="shape"/>
</filter>
<filter id="filter1_d_0_203" x="471" y="89" width="100" height="63.505" filterUnits="userSpaceOnUse" color-interpolation-filters="sRGB">
<feFlood flood-opacity="0" result="BackgroundImageFix"/>
<feColorMatrix in="SourceAlpha" type="matrix" values="0 0 0 0 0 0 0 0 0 0 0 0 0 0 0 0 0 0 127 0" result="hardAlpha"/>
<feOffset dy="5"/>
<feGaussianBlur stdDeviation="5"/>
<feColorMatrix type="matrix" values="0 0 0 0 0.795239 0 0 0 0 0.819323 0 0 0 0 0.873512 0 0 0 0.5 0"/>
<feBlend mode="normal" in2="BackgroundImageFix" result="effect1_dropShadow_0_203"/>
<feBlend mode="normal" in="SourceGraphic" in2="effect1_dropShadow_0_203" result="shape"/>
</filter>
<filter id="filter2_d_0_203" x="68.9999" y="134" width="817" height="142" filterUnits="userSpaceOnUse" color-interpolation-filters="sRGB">
<feFlood flood-opacity="0" result="BackgroundImageFix"/>
<feColorMatrix in="SourceAlpha" type="matrix" values="0 0 0 0 0 0 0 0 0 0 0 0 0 0 0 0 0 0 127 0" result="hardAlpha"/>
<feOffset dy="10"/>
<feGaussianBlur stdDeviation="5"/>
<feColorMatrix type="matrix" values="0 0 0 0 0 0 0 0 0 0 0 0 0 0 0 0 0 0 0.2 0"/>
<feBlend mode="normal" in2="BackgroundImageFix" result="effect1_dropShadow_0_203"/>
<feBlend mode="normal" in="SourceGraphic" in2="effect1_dropShadow_0_203" result="shape"/>
</filter>
<radialGradient id="paint0_radial_0_203" cx="0" cy="0" r="1" gradientUnits="userSpaceOnUse" gradientTransform="translate(521 166) rotate(90) scale(20)">
<stop stop-color="#74AAF8"/>
<stop offset="1" stop-color="#4072EE" stop-opacity="0.2"/>
</radialGradient>
</defs>
</svg>
