<svg width="50" height="26" viewBox="0 0 50 26" fill="none" xmlns="http://www.w3.org/2000/svg">
<path d="M20.2155 0.000114914C20.184 0.000940665 20.1526 0.00423922 20.1215 0.00998525H14.9473C11.6755 0.00998525 9.00883 2.92771 9.00883 6.50749V8.55206C8.99706 8.63002 8.99706 8.70957 9.00883 8.78754L9.00883 11.5611V12.283V18.7805C9.00883 20.3753 10.1906 21.6683 11.6481 21.6683H11.6752C11.6661 21.7888 11.6481 21.9087 11.6481 22.0293C11.6481 23.0019 11.9409 23.9842 12.5567 24.7422C13.1725 25.5002 14.1225 26 15.2772 26C16.4319 26 17.3819 25.5002 17.9977 24.7422C18.6134 23.9842 18.9062 23.0019 18.9062 22.0293C18.9062 21.9087 18.8882 21.7888 18.8791 21.6683H30.1799L38.652 14.4588L38.6636 14.4475C38.6227 13.4822 38.5418 12.5617 38.4316 11.6838C38.427 11.6441 38.424 11.6008 38.4187 11.5611H38.4135C37.7753 6.63301 36.1987 3.14102 35.2884 1.45387H37.3813C37.4687 1.45523 37.5555 1.43755 37.6367 1.40188C37.7178 1.36621 37.7917 1.31324 37.8539 1.24607C37.9162 1.1789 37.9656 1.09885 37.9994 1.01059C38.0331 0.922328 38.0505 0.827606 38.0505 0.73193C38.0505 0.636254 38.0331 0.541532 37.9994 0.45327C37.9656 0.365007 37.9162 0.284963 37.8539 0.21779C37.7917 0.150617 37.7178 0.0976544 37.6367 0.0619804C37.5555 0.0263064 37.4687 0.00863229 37.3813 0.00998525H20.3367C20.2967 0.00262692 20.2561 -0.000677174 20.2155 0.000114914ZM14.9473 1.45387H19.566V7.95138H10.3285V6.50749C10.3285 3.70816 12.3888 1.45387 14.9473 1.45387ZM20.8857 1.45387H28.8036V13.366C28.8036 15.5556 27.1751 17.3367 25.1745 17.3367H23.525V15.1708C23.525 13.4278 22.3895 11.97 20.8857 11.6344V8.79459C20.8975 8.71662 20.8975 8.63707 20.8857 8.55911V1.45387ZM32.1027 1.45387H33.7278C34.1671 2.15493 36.0951 5.44387 36.9676 10.8392H32.1027V1.45387ZM10.3285 9.39527H19.566V11.5611H10.3285V9.39527ZM39.3079 15.7292L33.1775 20.9464H34.2368C34.1456 21.2925 34.0822 21.6512 34.0822 22.0293C34.0822 24.219 35.7106 26 37.7112 26C39.7118 26 41.3402 24.219 41.3402 22.0293C41.3402 21.6537 41.2892 21.291 41.1998 20.9464H41.3402C41.5382 20.9464 41.7252 20.8502 41.8506 20.6827C41.9753 20.5159 42.0261 20.2957 41.9872 20.0834C41.5365 17.6144 40.2561 16.3472 39.3079 15.7292ZM35.6338 20.9464H39.7886C39.9328 21.2759 40.0206 21.6402 40.0206 22.0293C40.0206 23.4227 38.9847 24.5561 37.7112 24.5561C36.4377 24.5561 35.4018 23.4227 35.4018 22.0293C35.4018 21.6402 35.4896 21.2759 35.6338 20.9464ZM12.9961 21.6683H17.5582C17.5721 21.7882 17.5866 21.9077 17.5866 22.0293C17.5866 22.6811 17.3844 23.3231 17.0105 23.7834C16.6366 24.2437 16.1019 24.5561 15.2772 24.5561C14.4524 24.5561 13.9178 24.2437 13.5438 23.7834C13.1699 23.3231 12.9678 22.6811 12.9678 22.0293C12.9678 21.9077 12.9823 21.7882 12.9961 21.6683Z" fill="#242E42"/>
</svg>
