<svg width="50" height="30" viewBox="0 0 50 30" fill="none" xmlns="http://www.w3.org/2000/svg">
<path d="M18.941 0.000132593C18.9046 0.00108538 18.8683 0.00489141 18.8325 0.0115214H12.8622C9.08712 0.0115214 6.01019 3.37813 6.01019 7.50864V9.86776C5.9966 9.95772 5.9966 10.0495 6.01019 10.1395L6.01019 13.3397V14.1727V21.6699C6.01019 23.51 7.37374 25.0019 9.05554 25.0019H9.08676C9.0763 25.1409 9.05554 25.2792 9.05554 25.4184C9.05554 26.5407 9.39333 27.6741 10.1039 28.5487C10.8144 29.4233 11.9105 30 13.2429 30C14.5752 30 15.6714 29.4233 16.3819 28.5487C17.0924 27.6741 17.4302 26.5407 17.4302 25.4184C17.4302 25.2792 17.4095 25.1409 17.399 25.0019H30.4384L40.2138 16.6832L40.2272 16.6702C40.18 15.5564 40.0867 14.4942 39.9595 13.4813C39.9542 13.4355 39.9507 13.3855 39.9447 13.3397H39.9387C39.2023 7.65347 37.3831 3.62425 36.3328 1.67755H38.7476C38.8485 1.67911 38.9487 1.65872 39.0423 1.61755C39.1359 1.57639 39.2211 1.51528 39.293 1.43777C39.3648 1.36027 39.4219 1.26791 39.4608 1.16607C39.4998 1.06422 39.5198 0.95493 39.5198 0.844535C39.5198 0.73414 39.4998 0.624845 39.4608 0.523003C39.4219 0.421162 39.3648 0.328803 39.293 0.251296C39.2211 0.173789 39.1359 0.112678 39.0423 0.0715159C38.9487 0.0303536 38.8485 0.00996034 38.7476 0.0115214H19.0808C19.0346 0.00303107 18.9878 -0.000781355 18.941 0.000132593ZM12.8622 1.67755H18.1916V9.17467H7.53286V7.50864C7.53286 4.27865 9.91015 1.67755 12.8622 1.67755ZM19.7142 1.67755H28.8503V15.4223C28.8503 17.9488 26.9713 20.0038 24.6629 20.0038H22.7596V17.5048C22.7596 15.4936 21.4494 13.8116 19.7142 13.4243V10.1476C19.7278 10.0576 19.7278 9.96585 19.7142 9.8759V1.67755ZM32.6569 1.67755H34.532C35.039 2.48646 37.2636 6.28139 38.2703 12.5067H32.6569V1.67755ZM7.53286 10.8407H18.1916V13.3397H7.53286V10.8407ZM40.9707 18.1491L33.8971 24.1689H35.1194C35.0142 24.5682 34.941 24.9822 34.941 25.4184C34.941 27.945 36.8199 30 39.1283 30C41.4367 30 43.3157 27.945 43.3157 25.4184C43.3157 24.9851 43.2568 24.5665 43.1536 24.1689H43.3157C43.5441 24.1689 43.7598 24.0579 43.9045 23.8647C44.0484 23.6722 44.107 23.4181 44.0621 23.1732C43.5421 20.3243 42.0647 18.8621 40.9707 18.1491ZM36.7313 24.1689H41.5253C41.6917 24.5492 41.793 24.9694 41.793 25.4184C41.793 27.0261 40.5977 28.334 39.1283 28.334C37.6589 28.334 36.4636 27.0261 36.4636 25.4184C36.4636 24.9694 36.5649 24.5492 36.7313 24.1689ZM10.6109 25.0019H15.8748C15.8909 25.1402 15.9076 25.2781 15.9076 25.4184C15.9076 26.1705 15.6743 26.9113 15.2429 27.4424C14.8114 27.9735 14.1946 28.334 13.2429 28.334C12.2912 28.334 11.6744 27.9735 11.2429 27.4424C10.8114 26.9113 10.5782 26.1705 10.5782 25.4184C10.5782 25.2781 10.5949 25.1402 10.6109 25.0019Z" fill="#242E42"/>
<path d="M7.15384 5.15381C7.15384 2.94467 8.9447 1.15381 11.1538 1.15381H18.6923V15H7.15384V5.15381Z" fill="#242E42"/>
<path d="M30.2308 1.15381H33.1539C35.363 1.15381 37.1539 2.94467 37.1539 5.15381V15H30.2308V1.15381Z" fill="#242E42"/>
<path d="M33.6923 5.76929H36.3077C37.4123 5.76929 38.3077 6.66472 38.3077 7.76929V13.8462H33.6923V5.76929Z" fill="#242E42"/>
<circle cx="39.4615" cy="25.3846" r="3.46154" fill="#242E42"/>
<circle cx="12.9231" cy="25.3846" r="3.46154" fill="#242E42"/>
</svg>
