<svg width="30" height="30" viewBox="0 0 30 30" fill="none" xmlns="http://www.w3.org/2000/svg">
<g clip-path="url(#clip0_116_2)">
<path d="M10.1906 4.19175C10.162 4.19243 10.1334 4.19517 10.1051 4.19995H5.40001C2.4249 4.19995 5.94942e-06 6.62484 5.94942e-06 9.59995V11.2992C-0.0107035 11.364 -0.0107035 11.4301 5.94886e-06 11.4949L5.94942e-06 13.7999V14.3999V19.7999C5.94942e-06 21.1253 1.07461 22.1999 2.40001 22.1999H2.42462C2.41637 22.3001 2.40001 22.3997 2.40001 22.4999C2.40001 23.3083 2.66621 24.1247 3.22618 24.7546C3.78614 25.3846 4.65001 25.8 5.70001 25.8C6.75001 25.8 7.61387 25.3846 8.17383 24.7546C8.7338 24.1247 9.00001 23.3083 9.00001 22.4999C9.00001 22.3997 8.98364 22.3001 8.9754 22.1999H19.2516L26.9555 16.2082L26.966 16.1988C26.9288 15.3966 26.8553 14.6315 26.7551 13.9019C26.7509 13.8689 26.7482 13.8329 26.7434 13.7999H26.7387C26.1583 9.70427 24.7247 6.80211 23.8969 5.39995H25.8C25.8795 5.40107 25.9585 5.38638 26.0322 5.35674C26.106 5.32709 26.1732 5.28307 26.2298 5.22725C26.2864 5.17142 26.3314 5.1049 26.3621 5.03154C26.3927 4.95819 26.4086 4.87946 26.4086 4.79995C26.4086 4.72043 26.3927 4.64171 26.3621 4.56836C26.3314 4.495 26.2864 4.42848 26.2298 4.37265C26.1732 4.31683 26.106 4.27281 26.0322 4.24316C25.9585 4.21351 25.8795 4.19882 25.8 4.19995H10.3008C10.2644 4.19383 10.2275 4.19109 10.1906 4.19175ZM5.40001 5.39995H9.60001V10.7999H1.20001V9.59995C1.20001 7.27346 3.07352 5.39995 5.40001 5.39995ZM10.8 5.39995H18V15.2999C18 17.1197 16.5192 18.5999 14.7 18.5999H13.2V16.7999C13.2 15.3513 12.1675 14.1398 10.8 13.8609V11.5007C10.8107 11.4359 10.8107 11.3698 10.8 11.305V5.39995ZM21 5.39995H22.4777C22.8772 5.98259 24.6305 8.71599 25.4238 13.1999H21V5.39995ZM1.20001 11.9999H9.60001V13.7999H1.20001V11.9999ZM27.552 17.264L21.9773 21.5999H22.9406C22.8577 21.8876 22.8 22.1857 22.8 22.4999C22.8 24.3197 24.2808 25.8 26.1 25.8C27.9192 25.8 29.4 24.3197 29.4 22.4999C29.4 22.1878 29.3536 21.8863 29.2723 21.5999H29.4C29.58 21.5999 29.7501 21.52 29.8641 21.3808C29.9775 21.2422 30.0237 21.0592 29.9883 20.8828C29.5785 18.8308 28.4142 17.7776 27.552 17.264ZM24.2109 21.5999H27.9891C28.1202 21.8738 28.2 22.1765 28.2 22.4999C28.2 23.6579 27.258 24.6 26.1 24.6C24.942 24.6 24 23.6579 24 22.4999C24 22.1765 24.0798 21.8738 24.2109 21.5999ZM3.62579 22.1999H7.77422C7.78685 22.2995 7.80001 22.3989 7.80001 22.4999C7.80001 23.0416 7.61621 23.5752 7.27618 23.9578C6.93614 24.3403 6.45001 24.6 5.70001 24.6C4.95001 24.6 4.46387 24.3403 4.12383 23.9578C3.7838 23.5752 3.60001 23.0416 3.60001 22.4999C3.60001 22.3989 3.61317 22.2995 3.62579 22.1999Z" fill="#242E42"/>
</g>
<defs>
<clipPath id="clip0_116_2">
<rect width="30" height="30" fill="white"/>
</clipPath>
</defs>
</svg>
