<svg width="50" height="23" viewBox="0 0 50 23" fill="none" xmlns="http://www.w3.org/2000/svg">
<path d="M39.9116 17.897C39.9116 18.0765 39.9261 18.252 39.9486 18.4265C40.2091 20.501 41.9766 22.107 44.1221 22.107C46.3256 22.107 48.1316 20.4125 48.3141 18.257C48.3241 18.138 48.3326 18.018 48.3326 17.897C48.3326 15.572 46.4471 13.6865 44.1221 13.6865C41.7966 13.687 39.9116 15.572 39.9116 17.897Z" fill="#242E42"/>
<path d="M5.09912 17.897C5.09912 18.0765 5.11412 18.252 5.13612 18.4265C5.39662 20.501 7.16412 22.107 9.30962 22.107C11.5136 22.107 13.3196 20.4125 13.5021 18.257C13.5126 18.138 13.5206 18.018 13.5206 17.897C13.5206 15.572 11.6356 13.6865 9.31012 13.6865C6.98462 13.6865 5.09912 15.572 5.09912 17.897Z" fill="#242E42"/>
<path fill-rule="evenodd" clip-rule="evenodd" d="M0.804107 18.866L4.17911 18.8135C4.1739 18.7826 4.16818 18.7519 4.16245 18.7211L4.16244 18.721C4.15222 18.6661 4.14197 18.611 4.13461 18.555C4.10411 18.3165 4.08961 18.1025 4.08961 17.898C4.08961 15.0195 6.43111 12.6785 9.30911 12.6785C12.1881 12.6785 14.5296 15.0205 14.5296 17.898C14.5296 18.048 14.5201 18.195 14.5081 18.3435C14.5012 18.4239 14.4892 18.5029 14.4772 18.582L14.4772 18.582L14.4666 18.653L38.9181 18.269C38.9076 18.141 38.9016 18.017 38.9016 17.8985C38.9016 15.02 41.2431 12.679 44.1216 12.679C46.7436 12.679 48.9151 14.6245 49.2811 17.147C49.5726 16.5075 49.8541 15.6315 49.7446 14.775C49.6229 13.8262 49.0904 12.8936 48.6504 12.1229C48.3349 11.5704 48.067 11.1012 48.0321 10.769C47.997 10.4341 48.0387 10.1245 48.0833 9.79415C48.1445 9.33966 48.2111 8.84587 48.0901 8.19297C47.8811 7.06547 45.9231 3.34397 43.9396 2.08097C42.4986 1.16347 41.4606 0.53897 37.0841 0.28797C30.9186 -0.0655299 26.6871 0.33747 22.9716 1.46697C20.7626 2.13897 13.2011 6.07297 10.9086 7.34247C8.7388 8.5441 7.60286 8.93365 6.27641 9.38854L6.27634 9.38856C5.94369 9.50264 5.59904 9.62083 5.22311 9.75697C3.05661 10.5415 1.68011 12.263 1.13711 13.564C0.594107 14.865 0.198607 16.4855 0.804107 18.866ZM35.4866 7.31097L34.8386 1.81197C38.4281 1.87497 42.1531 2.15747 42.4801 3.41547C42.6741 4.16097 41.6926 5.94047 40.5171 6.46397C39.6091 6.86847 38.2006 7.02147 35.4866 7.31097ZM18.3791 5.29897L17.9691 6.49847C17.9691 6.49847 18.7266 7.44547 18.1271 8.67697C18.1271 8.67697 25.5781 8.21797 31.8906 7.65747L32.5821 1.79347H31.7311C25.7111 1.79347 23.2346 2.69147 18.3791 5.29897Z" fill="#242E42"/>
</svg>
