<svg width="50" height="24" viewBox="0 0 50 24" fill="none" xmlns="http://www.w3.org/2000/svg">
<path d="M9.54857 16.0355C7.46107 16.0355 5.76807 17.727 5.76807 19.8155C5.76807 19.9775 5.78107 20.136 5.80107 20.291C6.03557 22.1555 7.62207 23.5965 9.54807 23.5965C11.5276 23.5965 13.1491 22.0755 13.3131 20.1385C13.3221 20.0315 13.3296 19.9245 13.3296 19.8155C13.3301 17.727 11.6376 16.0355 9.54857 16.0355Z" fill="#242E42"/>
<path d="M41.9826 16.0355C39.8946 16.0355 38.2021 17.727 38.2021 19.8155C38.2021 19.9775 38.2146 20.136 38.2346 20.291C38.4686 22.1555 40.0561 23.5965 41.9816 23.5965C43.9606 23.5965 45.5821 22.0755 45.7466 20.1385C45.7556 20.0315 45.7621 19.9245 45.7621 19.8155C45.7631 17.727 44.0711 16.0355 41.9826 16.0355Z" fill="#242E42"/>
<path fill-rule="evenodd" clip-rule="evenodd" d="M35.1924 0.30749C35.0038 0.111047 34.7453 0 34.4729 0H28.0205L23.0121 4.49629C22.2663 4.58964 21.6212 4.70375 21.107 4.842C18.136 5.6415 10.639 10.57 10.639 10.57C10.639 10.57 2.39053 11.8475 0.817035 15.6095C0.817035 15.6095 0.138035 16.006 0.0145348 17.0225C-0.0489652 17.5455 0.106035 18.3395 0.277035 19.005C0.464535 19.733 1.06803 20.281 1.81053 20.3965L5.39053 20.9575C5.33703 20.762 5.29253 20.5635 5.26653 20.3585C5.24403 20.1815 5.22903 20.0005 5.22903 19.815C5.22903 17.4335 7.16653 15.4965 9.54853 15.4965C11.931 15.4965 13.8685 17.4335 13.8685 19.815C13.8685 19.9395 13.8605 20.0615 13.8505 20.1825C13.8145 20.6045 13.7165 21.008 13.567 21.3865L13.988 21.409L37.772 20.7655C37.7415 20.6315 37.7175 20.4965 37.6995 20.3585C37.6765 20.1815 37.6625 20.0005 37.6625 19.815C37.6625 17.4335 39.6 15.4965 41.9815 15.4965C44.364 15.4965 46.3015 17.4335 46.3015 19.815C46.3015 19.9395 46.2935 20.0615 46.283 20.1825C46.2786 20.2368 46.2707 20.29 46.2629 20.3433L46.258 20.3764L46.252 20.419L48.3045 20C49.151 19.827 49.75 19.07 49.72 18.2055L49.5455 12.9695C49.5175 12.1345 49.2875 11.319 48.876 10.5925L46.161 5.802C45.716 5.0175 44.9005 4.5155 44 4.47C42.8376 4.41175 41.0615 4.33046 38.9879 4.26139L35.1924 0.30749ZM35.9574 4.17704C34.3628 4.10284 32.4996 4.0343 31.2554 4.04663C30.4443 4.05467 29.3265 4.10273 28.1755 4.16482C30.6639 4.10027 33.4055 4.12081 35.9574 4.17704ZM36.404 10.8105L35.8575 5.355C33.268 5.2965 30.469 5.271 28.017 5.3275V11.1535L36.404 10.8105ZM14.6935 11.5435L13.864 11.59C13.6385 11.6025 13.432 11.4655 13.356 11.2525C13.28 11.0405 13.3535 10.804 13.535 10.6705C14.0225 10.3145 14.6195 9.889 15.2845 9.4395V10.8315C14.8795 11.174 14.6935 11.5435 14.6935 11.5435ZM16.6643 10.2773L16.6643 10.2773C16.6915 10.2725 16.7187 10.2677 16.749 10.2665C18.221 10.2115 18.471 11.5435 18.471 11.5435L25.677 11.249V5.415C23.977 5.5075 22.609 5.6625 21.859 5.905C20.211 6.4385 18.2945 7.503 16.6035 8.575V10.2865C16.6246 10.2844 16.6444 10.2809 16.6642 10.2773L16.6643 10.2773ZM45.884 9.7375C45.6325 10.1745 45.1745 10.452 44.671 10.473L38.745 10.715L38.214 5.418C40.663 5.4925 42.709 5.5845 43.7455 5.6405C44.225 5.666 44.6575 5.9425 44.881 6.3675L45.9095 8.319C46.145 8.7655 46.135 9.3015 45.884 9.7375Z" fill="#242E42"/>
</svg>
